<?xml version="1.0" encoding="utf-8" standalone="no"?>
<!DOCTYPE svg PUBLIC "-//W3C//DTD SVG 1.1//EN"
  "http://www.w3.org/Graphics/SVG/1.1/DTD/svg11.dtd">
<!-- Created with matplotlib (https://matplotlib.org/) -->
<svg height="345.6pt" version="1.1" viewBox="0 0 460.8 345.6" width="460.8pt" xmlns="http://www.w3.org/2000/svg" xmlns:xlink="http://www.w3.org/1999/xlink">
 <metadata>
  <rdf:RDF xmlns:cc="http://creativecommons.org/ns#" xmlns:dc="http://purl.org/dc/elements/1.1/" xmlns:rdf="http://www.w3.org/1999/02/22-rdf-syntax-ns#">
   <cc:Work>
    <dc:type rdf:resource="http://purl.org/dc/dcmitype/StillImage"/>
    <dc:date>2022-11-02T09:39:20.307875</dc:date>
    <dc:format>image/svg+xml</dc:format>
    <dc:creator>
     <cc:Agent>
      <dc:title>Matplotlib v3.3.4, https://matplotlib.org/</dc:title>
     </cc:Agent>
    </dc:creator>
   </cc:Work>
  </rdf:RDF>
 </metadata>
 <defs>
  <style type="text/css">*{stroke-linecap:butt;stroke-linejoin:round;}</style>
 </defs>
 <g id="figure_1">
  <g id="patch_1">
   <path d="M 0 345.6 
L 460.8 345.6 
L 460.8 0 
L 0 0 
z
" style="fill:#ffffff;"/>
  </g>
  <g id="axes_1">
   <g id="patch_2">
    <path d="M 57.6 307.584 
L 414.72 307.584 
L 414.72 41.472 
L 57.6 41.472 
z
" style="fill:#ffffff;"/>
   </g>
   <g id="matplotlib.axis_1">
    <g id="xtick_1">
     <g id="line2d_1">
      <path clip-path="url(#pcf1180f02d)" d="M 73.832727 307.584 
L 73.832727 41.472 
" style="fill:none;stroke:#b0b0b0;stroke-linecap:square;stroke-width:0.8;"/>
     </g>
     <g id="line2d_2">
      <defs>
       <path d="M 0 0 
L 0 3.5 
" id="m69073a0c19" style="stroke:#000000;stroke-width:0.8;"/>
      </defs>
      <g>
       <use style="stroke:#000000;stroke-width:0.8;" x="73.832727" xlink:href="#m69073a0c19" y="307.584"/>
      </g>
     </g>
     <g id="text_1">
      <!-- 0 -->
      <g transform="translate(70.651477 322.182437)scale(0.1 -0.1)">
       <defs>
        <path d="M 31.78125 66.40625 
Q 24.171875 66.40625 20.328125 58.90625 
Q 16.5 51.421875 16.5 36.375 
Q 16.5 21.390625 20.328125 13.890625 
Q 24.171875 6.390625 31.78125 6.390625 
Q 39.453125 6.390625 43.28125 13.890625 
Q 47.125 21.390625 47.125 36.375 
Q 47.125 51.421875 43.28125 58.90625 
Q 39.453125 66.40625 31.78125 66.40625 
z
M 31.78125 74.21875 
Q 44.046875 74.21875 50.515625 64.515625 
Q 56.984375 54.828125 56.984375 36.375 
Q 56.984375 17.96875 50.515625 8.265625 
Q 44.046875 -1.421875 31.78125 -1.421875 
Q 19.53125 -1.421875 13.0625 8.265625 
Q 6.59375 17.96875 6.59375 36.375 
Q 6.59375 54.828125 13.0625 64.515625 
Q 19.53125 74.21875 31.78125 74.21875 
z
" id="DejaVuSans-48"/>
       </defs>
       <use xlink:href="#DejaVuSans-48"/>
      </g>
     </g>
    </g>
    <g id="xtick_2">
     <g id="line2d_3">
      <path clip-path="url(#pcf1180f02d)" d="M 128.122785 307.584 
L 128.122785 41.472 
" style="fill:none;stroke:#b0b0b0;stroke-linecap:square;stroke-width:0.8;"/>
     </g>
     <g id="line2d_4">
      <g>
       <use style="stroke:#000000;stroke-width:0.8;" x="128.122785" xlink:href="#m69073a0c19" y="307.584"/>
      </g>
     </g>
     <g id="text_2">
      <!-- 50 -->
      <g transform="translate(121.760285 322.182437)scale(0.1 -0.1)">
       <defs>
        <path d="M 10.796875 72.90625 
L 49.515625 72.90625 
L 49.515625 64.59375 
L 19.828125 64.59375 
L 19.828125 46.734375 
Q 21.96875 47.46875 24.109375 47.828125 
Q 26.265625 48.1875 28.421875 48.1875 
Q 40.625 48.1875 47.75 41.5 
Q 54.890625 34.8125 54.890625 23.390625 
Q 54.890625 11.625 47.5625 5.09375 
Q 40.234375 -1.421875 26.90625 -1.421875 
Q 22.3125 -1.421875 17.546875 -0.640625 
Q 12.796875 0.140625 7.71875 1.703125 
L 7.71875 11.625 
Q 12.109375 9.234375 16.796875 8.0625 
Q 21.484375 6.890625 26.703125 6.890625 
Q 35.15625 6.890625 40.078125 11.328125 
Q 45.015625 15.765625 45.015625 23.390625 
Q 45.015625 31 40.078125 35.4375 
Q 35.15625 39.890625 26.703125 39.890625 
Q 22.75 39.890625 18.8125 39.015625 
Q 14.890625 38.140625 10.796875 36.28125 
z
" id="DejaVuSans-53"/>
       </defs>
       <use xlink:href="#DejaVuSans-53"/>
       <use x="63.623047" xlink:href="#DejaVuSans-48"/>
      </g>
     </g>
    </g>
    <g id="xtick_3">
     <g id="line2d_5">
      <path clip-path="url(#pcf1180f02d)" d="M 182.412843 307.584 
L 182.412843 41.472 
" style="fill:none;stroke:#b0b0b0;stroke-linecap:square;stroke-width:0.8;"/>
     </g>
     <g id="line2d_6">
      <g>
       <use style="stroke:#000000;stroke-width:0.8;" x="182.412843" xlink:href="#m69073a0c19" y="307.584"/>
      </g>
     </g>
     <g id="text_3">
      <!-- 100 -->
      <g transform="translate(172.869093 322.182437)scale(0.1 -0.1)">
       <defs>
        <path d="M 12.40625 8.296875 
L 28.515625 8.296875 
L 28.515625 63.921875 
L 10.984375 60.40625 
L 10.984375 69.390625 
L 28.421875 72.90625 
L 38.28125 72.90625 
L 38.28125 8.296875 
L 54.390625 8.296875 
L 54.390625 0 
L 12.40625 0 
z
" id="DejaVuSans-49"/>
       </defs>
       <use xlink:href="#DejaVuSans-49"/>
       <use x="63.623047" xlink:href="#DejaVuSans-48"/>
       <use x="127.246094" xlink:href="#DejaVuSans-48"/>
      </g>
     </g>
    </g>
    <g id="xtick_4">
     <g id="line2d_7">
      <path clip-path="url(#pcf1180f02d)" d="M 236.702901 307.584 
L 236.702901 41.472 
" style="fill:none;stroke:#b0b0b0;stroke-linecap:square;stroke-width:0.8;"/>
     </g>
     <g id="line2d_8">
      <g>
       <use style="stroke:#000000;stroke-width:0.8;" x="236.702901" xlink:href="#m69073a0c19" y="307.584"/>
      </g>
     </g>
     <g id="text_4">
      <!-- 150 -->
      <g transform="translate(227.159151 322.182437)scale(0.1 -0.1)">
       <use xlink:href="#DejaVuSans-49"/>
       <use x="63.623047" xlink:href="#DejaVuSans-53"/>
       <use x="127.246094" xlink:href="#DejaVuSans-48"/>
      </g>
     </g>
    </g>
    <g id="xtick_5">
     <g id="line2d_9">
      <path clip-path="url(#pcf1180f02d)" d="M 290.992958 307.584 
L 290.992958 41.472 
" style="fill:none;stroke:#b0b0b0;stroke-linecap:square;stroke-width:0.8;"/>
     </g>
     <g id="line2d_10">
      <g>
       <use style="stroke:#000000;stroke-width:0.8;" x="290.992958" xlink:href="#m69073a0c19" y="307.584"/>
      </g>
     </g>
     <g id="text_5">
      <!-- 200 -->
      <g transform="translate(281.449208 322.182437)scale(0.1 -0.1)">
       <defs>
        <path d="M 19.1875 8.296875 
L 53.609375 8.296875 
L 53.609375 0 
L 7.328125 0 
L 7.328125 8.296875 
Q 12.9375 14.109375 22.625 23.890625 
Q 32.328125 33.6875 34.8125 36.53125 
Q 39.546875 41.84375 41.421875 45.53125 
Q 43.3125 49.21875 43.3125 52.78125 
Q 43.3125 58.59375 39.234375 62.25 
Q 35.15625 65.921875 28.609375 65.921875 
Q 23.96875 65.921875 18.8125 64.3125 
Q 13.671875 62.703125 7.8125 59.421875 
L 7.8125 69.390625 
Q 13.765625 71.78125 18.9375 73 
Q 24.125 74.21875 28.421875 74.21875 
Q 39.75 74.21875 46.484375 68.546875 
Q 53.21875 62.890625 53.21875 53.421875 
Q 53.21875 48.921875 51.53125 44.890625 
Q 49.859375 40.875 45.40625 35.40625 
Q 44.1875 33.984375 37.640625 27.21875 
Q 31.109375 20.453125 19.1875 8.296875 
z
" id="DejaVuSans-50"/>
       </defs>
       <use xlink:href="#DejaVuSans-50"/>
       <use x="63.623047" xlink:href="#DejaVuSans-48"/>
       <use x="127.246094" xlink:href="#DejaVuSans-48"/>
      </g>
     </g>
    </g>
    <g id="xtick_6">
     <g id="line2d_11">
      <path clip-path="url(#pcf1180f02d)" d="M 345.283016 307.584 
L 345.283016 41.472 
" style="fill:none;stroke:#b0b0b0;stroke-linecap:square;stroke-width:0.8;"/>
     </g>
     <g id="line2d_12">
      <g>
       <use style="stroke:#000000;stroke-width:0.8;" x="345.283016" xlink:href="#m69073a0c19" y="307.584"/>
      </g>
     </g>
     <g id="text_6">
      <!-- 250 -->
      <g transform="translate(335.739266 322.182437)scale(0.1 -0.1)">
       <use xlink:href="#DejaVuSans-50"/>
       <use x="63.623047" xlink:href="#DejaVuSans-53"/>
       <use x="127.246094" xlink:href="#DejaVuSans-48"/>
      </g>
     </g>
    </g>
    <g id="xtick_7">
     <g id="line2d_13">
      <path clip-path="url(#pcf1180f02d)" d="M 399.573074 307.584 
L 399.573074 41.472 
" style="fill:none;stroke:#b0b0b0;stroke-linecap:square;stroke-width:0.8;"/>
     </g>
     <g id="line2d_14">
      <g>
       <use style="stroke:#000000;stroke-width:0.8;" x="399.573074" xlink:href="#m69073a0c19" y="307.584"/>
      </g>
     </g>
     <g id="text_7">
      <!-- 300 -->
      <g transform="translate(390.029324 322.182437)scale(0.1 -0.1)">
       <defs>
        <path d="M 40.578125 39.3125 
Q 47.65625 37.796875 51.625 33 
Q 55.609375 28.21875 55.609375 21.1875 
Q 55.609375 10.40625 48.1875 4.484375 
Q 40.765625 -1.421875 27.09375 -1.421875 
Q 22.515625 -1.421875 17.65625 -0.515625 
Q 12.796875 0.390625 7.625 2.203125 
L 7.625 11.71875 
Q 11.71875 9.328125 16.59375 8.109375 
Q 21.484375 6.890625 26.8125 6.890625 
Q 36.078125 6.890625 40.9375 10.546875 
Q 45.796875 14.203125 45.796875 21.1875 
Q 45.796875 27.640625 41.28125 31.265625 
Q 36.765625 34.90625 28.71875 34.90625 
L 20.21875 34.90625 
L 20.21875 43.015625 
L 29.109375 43.015625 
Q 36.375 43.015625 40.234375 45.921875 
Q 44.09375 48.828125 44.09375 54.296875 
Q 44.09375 59.90625 40.109375 62.90625 
Q 36.140625 65.921875 28.71875 65.921875 
Q 24.65625 65.921875 20.015625 65.03125 
Q 15.375 64.15625 9.8125 62.3125 
L 9.8125 71.09375 
Q 15.4375 72.65625 20.34375 73.4375 
Q 25.25 74.21875 29.59375 74.21875 
Q 40.828125 74.21875 47.359375 69.109375 
Q 53.90625 64.015625 53.90625 55.328125 
Q 53.90625 49.265625 50.4375 45.09375 
Q 46.96875 40.921875 40.578125 39.3125 
z
" id="DejaVuSans-51"/>
       </defs>
       <use xlink:href="#DejaVuSans-51"/>
       <use x="63.623047" xlink:href="#DejaVuSans-48"/>
       <use x="127.246094" xlink:href="#DejaVuSans-48"/>
      </g>
     </g>
    </g>
    <g id="text_8">
     <!-- Generations -->
     <g transform="translate(205.662344 335.860562)scale(0.1 -0.1)">
      <defs>
       <path d="M 59.515625 10.40625 
L 59.515625 29.984375 
L 43.40625 29.984375 
L 43.40625 38.09375 
L 69.28125 38.09375 
L 69.28125 6.78125 
Q 63.578125 2.734375 56.6875 0.65625 
Q 49.8125 -1.421875 42 -1.421875 
Q 24.90625 -1.421875 15.25 8.5625 
Q 5.609375 18.5625 5.609375 36.375 
Q 5.609375 54.25 15.25 64.234375 
Q 24.90625 74.21875 42 74.21875 
Q 49.125 74.21875 55.546875 72.453125 
Q 61.96875 70.703125 67.390625 67.28125 
L 67.390625 56.78125 
Q 61.921875 61.421875 55.765625 63.765625 
Q 49.609375 66.109375 42.828125 66.109375 
Q 29.4375 66.109375 22.71875 58.640625 
Q 16.015625 51.171875 16.015625 36.375 
Q 16.015625 21.625 22.71875 14.15625 
Q 29.4375 6.6875 42.828125 6.6875 
Q 48.046875 6.6875 52.140625 7.59375 
Q 56.25 8.5 59.515625 10.40625 
z
" id="DejaVuSans-71"/>
       <path d="M 56.203125 29.59375 
L 56.203125 25.203125 
L 14.890625 25.203125 
Q 15.484375 15.921875 20.484375 11.0625 
Q 25.484375 6.203125 34.421875 6.203125 
Q 39.59375 6.203125 44.453125 7.46875 
Q 49.3125 8.734375 54.109375 11.28125 
L 54.109375 2.78125 
Q 49.265625 0.734375 44.1875 -0.34375 
Q 39.109375 -1.421875 33.890625 -1.421875 
Q 20.796875 -1.421875 13.15625 6.1875 
Q 5.515625 13.8125 5.515625 26.8125 
Q 5.515625 40.234375 12.765625 48.109375 
Q 20.015625 56 32.328125 56 
Q 43.359375 56 49.78125 48.890625 
Q 56.203125 41.796875 56.203125 29.59375 
z
M 47.21875 32.234375 
Q 47.125 39.59375 43.09375 43.984375 
Q 39.0625 48.390625 32.421875 48.390625 
Q 24.90625 48.390625 20.390625 44.140625 
Q 15.875 39.890625 15.1875 32.171875 
z
" id="DejaVuSans-101"/>
       <path d="M 54.890625 33.015625 
L 54.890625 0 
L 45.90625 0 
L 45.90625 32.71875 
Q 45.90625 40.484375 42.875 44.328125 
Q 39.84375 48.1875 33.796875 48.1875 
Q 26.515625 48.1875 22.3125 43.546875 
Q 18.109375 38.921875 18.109375 30.90625 
L 18.109375 0 
L 9.078125 0 
L 9.078125 54.6875 
L 18.109375 54.6875 
L 18.109375 46.1875 
Q 21.34375 51.125 25.703125 53.5625 
Q 30.078125 56 35.796875 56 
Q 45.21875 56 50.046875 50.171875 
Q 54.890625 44.34375 54.890625 33.015625 
z
" id="DejaVuSans-110"/>
       <path d="M 41.109375 46.296875 
Q 39.59375 47.171875 37.8125 47.578125 
Q 36.03125 48 33.890625 48 
Q 26.265625 48 22.1875 43.046875 
Q 18.109375 38.09375 18.109375 28.8125 
L 18.109375 0 
L 9.078125 0 
L 9.078125 54.6875 
L 18.109375 54.6875 
L 18.109375 46.1875 
Q 20.953125 51.171875 25.484375 53.578125 
Q 30.03125 56 36.53125 56 
Q 37.453125 56 38.578125 55.875 
Q 39.703125 55.765625 41.0625 55.515625 
z
" id="DejaVuSans-114"/>
       <path d="M 34.28125 27.484375 
Q 23.390625 27.484375 19.1875 25 
Q 14.984375 22.515625 14.984375 16.5 
Q 14.984375 11.71875 18.140625 8.90625 
Q 21.296875 6.109375 26.703125 6.109375 
Q 34.1875 6.109375 38.703125 11.40625 
Q 43.21875 16.703125 43.21875 25.484375 
L 43.21875 27.484375 
z
M 52.203125 31.203125 
L 52.203125 0 
L 43.21875 0 
L 43.21875 8.296875 
Q 40.140625 3.328125 35.546875 0.953125 
Q 30.953125 -1.421875 24.3125 -1.421875 
Q 15.921875 -1.421875 10.953125 3.296875 
Q 6 8.015625 6 15.921875 
Q 6 25.140625 12.171875 29.828125 
Q 18.359375 34.515625 30.609375 34.515625 
L 43.21875 34.515625 
L 43.21875 35.40625 
Q 43.21875 41.609375 39.140625 45 
Q 35.0625 48.390625 27.6875 48.390625 
Q 23 48.390625 18.546875 47.265625 
Q 14.109375 46.140625 10.015625 43.890625 
L 10.015625 52.203125 
Q 14.9375 54.109375 19.578125 55.046875 
Q 24.21875 56 28.609375 56 
Q 40.484375 56 46.34375 49.84375 
Q 52.203125 43.703125 52.203125 31.203125 
z
" id="DejaVuSans-97"/>
       <path d="M 18.3125 70.21875 
L 18.3125 54.6875 
L 36.8125 54.6875 
L 36.8125 47.703125 
L 18.3125 47.703125 
L 18.3125 18.015625 
Q 18.3125 11.328125 20.140625 9.421875 
Q 21.96875 7.515625 27.59375 7.515625 
L 36.8125 7.515625 
L 36.8125 0 
L 27.59375 0 
Q 17.1875 0 13.234375 3.875 
Q 9.28125 7.765625 9.28125 18.015625 
L 9.28125 47.703125 
L 2.6875 47.703125 
L 2.6875 54.6875 
L 9.28125 54.6875 
L 9.28125 70.21875 
z
" id="DejaVuSans-116"/>
       <path d="M 9.421875 54.6875 
L 18.40625 54.6875 
L 18.40625 0 
L 9.421875 0 
z
M 9.421875 75.984375 
L 18.40625 75.984375 
L 18.40625 64.59375 
L 9.421875 64.59375 
z
" id="DejaVuSans-105"/>
       <path d="M 30.609375 48.390625 
Q 23.390625 48.390625 19.1875 42.75 
Q 14.984375 37.109375 14.984375 27.296875 
Q 14.984375 17.484375 19.15625 11.84375 
Q 23.34375 6.203125 30.609375 6.203125 
Q 37.796875 6.203125 41.984375 11.859375 
Q 46.1875 17.53125 46.1875 27.296875 
Q 46.1875 37.015625 41.984375 42.703125 
Q 37.796875 48.390625 30.609375 48.390625 
z
M 30.609375 56 
Q 42.328125 56 49.015625 48.375 
Q 55.71875 40.765625 55.71875 27.296875 
Q 55.71875 13.875 49.015625 6.21875 
Q 42.328125 -1.421875 30.609375 -1.421875 
Q 18.84375 -1.421875 12.171875 6.21875 
Q 5.515625 13.875 5.515625 27.296875 
Q 5.515625 40.765625 12.171875 48.375 
Q 18.84375 56 30.609375 56 
z
" id="DejaVuSans-111"/>
       <path d="M 44.28125 53.078125 
L 44.28125 44.578125 
Q 40.484375 46.53125 36.375 47.5 
Q 32.28125 48.484375 27.875 48.484375 
Q 21.1875 48.484375 17.84375 46.4375 
Q 14.5 44.390625 14.5 40.28125 
Q 14.5 37.15625 16.890625 35.375 
Q 19.28125 33.59375 26.515625 31.984375 
L 29.59375 31.296875 
Q 39.15625 29.25 43.1875 25.515625 
Q 47.21875 21.78125 47.21875 15.09375 
Q 47.21875 7.46875 41.1875 3.015625 
Q 35.15625 -1.421875 24.609375 -1.421875 
Q 20.21875 -1.421875 15.453125 -0.5625 
Q 10.6875 0.296875 5.421875 2 
L 5.421875 11.28125 
Q 10.40625 8.6875 15.234375 7.390625 
Q 20.0625 6.109375 24.8125 6.109375 
Q 31.15625 6.109375 34.5625 8.28125 
Q 37.984375 10.453125 37.984375 14.40625 
Q 37.984375 18.0625 35.515625 20.015625 
Q 33.0625 21.96875 24.703125 23.78125 
L 21.578125 24.515625 
Q 13.234375 26.265625 9.515625 29.90625 
Q 5.8125 33.546875 5.8125 39.890625 
Q 5.8125 47.609375 11.28125 51.796875 
Q 16.75 56 26.8125 56 
Q 31.78125 56 36.171875 55.265625 
Q 40.578125 54.546875 44.28125 53.078125 
z
" id="DejaVuSans-115"/>
      </defs>
      <use xlink:href="#DejaVuSans-71"/>
      <use x="77.490234" xlink:href="#DejaVuSans-101"/>
      <use x="139.013672" xlink:href="#DejaVuSans-110"/>
      <use x="202.392578" xlink:href="#DejaVuSans-101"/>
      <use x="263.916016" xlink:href="#DejaVuSans-114"/>
      <use x="305.029297" xlink:href="#DejaVuSans-97"/>
      <use x="366.308594" xlink:href="#DejaVuSans-116"/>
      <use x="405.517578" xlink:href="#DejaVuSans-105"/>
      <use x="433.300781" xlink:href="#DejaVuSans-111"/>
      <use x="494.482422" xlink:href="#DejaVuSans-110"/>
      <use x="557.861328" xlink:href="#DejaVuSans-115"/>
     </g>
    </g>
   </g>
   <g id="matplotlib.axis_2">
    <g id="ytick_1">
     <g id="line2d_15">
      <path clip-path="url(#pcf1180f02d)" d="M 57.6 283.454163 
L 414.72 283.454163 
" style="fill:none;stroke:#b0b0b0;stroke-linecap:square;stroke-width:0.8;"/>
     </g>
     <g id="line2d_16">
      <defs>
       <path d="M 0 0 
L -3.5 0 
" id="md812217f3d" style="stroke:#000000;stroke-width:0.8;"/>
      </defs>
      <g>
       <use style="stroke:#000000;stroke-width:0.8;" x="57.6" xlink:href="#md812217f3d" y="283.454163"/>
      </g>
     </g>
     <g id="text_9">
      <!-- 0 -->
      <g transform="translate(44.2375 287.253381)scale(0.1 -0.1)">
       <use xlink:href="#DejaVuSans-48"/>
      </g>
     </g>
    </g>
    <g id="ytick_2">
     <g id="line2d_17">
      <path clip-path="url(#pcf1180f02d)" d="M 57.6 240.882651 
L 414.72 240.882651 
" style="fill:none;stroke:#b0b0b0;stroke-linecap:square;stroke-width:0.8;"/>
     </g>
     <g id="line2d_18">
      <g>
       <use style="stroke:#000000;stroke-width:0.8;" x="57.6" xlink:href="#md812217f3d" y="240.882651"/>
      </g>
     </g>
     <g id="text_10">
      <!-- 100 -->
      <g transform="translate(31.5125 244.68187)scale(0.1 -0.1)">
       <use xlink:href="#DejaVuSans-49"/>
       <use x="63.623047" xlink:href="#DejaVuSans-48"/>
       <use x="127.246094" xlink:href="#DejaVuSans-48"/>
      </g>
     </g>
    </g>
    <g id="ytick_3">
     <g id="line2d_19">
      <path clip-path="url(#pcf1180f02d)" d="M 57.6 198.311139 
L 414.72 198.311139 
" style="fill:none;stroke:#b0b0b0;stroke-linecap:square;stroke-width:0.8;"/>
     </g>
     <g id="line2d_20">
      <g>
       <use style="stroke:#000000;stroke-width:0.8;" x="57.6" xlink:href="#md812217f3d" y="198.311139"/>
      </g>
     </g>
     <g id="text_11">
      <!-- 200 -->
      <g transform="translate(31.5125 202.110358)scale(0.1 -0.1)">
       <use xlink:href="#DejaVuSans-50"/>
       <use x="63.623047" xlink:href="#DejaVuSans-48"/>
       <use x="127.246094" xlink:href="#DejaVuSans-48"/>
      </g>
     </g>
    </g>
    <g id="ytick_4">
     <g id="line2d_21">
      <path clip-path="url(#pcf1180f02d)" d="M 57.6 155.739628 
L 414.72 155.739628 
" style="fill:none;stroke:#b0b0b0;stroke-linecap:square;stroke-width:0.8;"/>
     </g>
     <g id="line2d_22">
      <g>
       <use style="stroke:#000000;stroke-width:0.8;" x="57.6" xlink:href="#md812217f3d" y="155.739628"/>
      </g>
     </g>
     <g id="text_12">
      <!-- 300 -->
      <g transform="translate(31.5125 159.538847)scale(0.1 -0.1)">
       <use xlink:href="#DejaVuSans-51"/>
       <use x="63.623047" xlink:href="#DejaVuSans-48"/>
       <use x="127.246094" xlink:href="#DejaVuSans-48"/>
      </g>
     </g>
    </g>
    <g id="ytick_5">
     <g id="line2d_23">
      <path clip-path="url(#pcf1180f02d)" d="M 57.6 113.168116 
L 414.72 113.168116 
" style="fill:none;stroke:#b0b0b0;stroke-linecap:square;stroke-width:0.8;"/>
     </g>
     <g id="line2d_24">
      <g>
       <use style="stroke:#000000;stroke-width:0.8;" x="57.6" xlink:href="#md812217f3d" y="113.168116"/>
      </g>
     </g>
     <g id="text_13">
      <!-- 400 -->
      <g transform="translate(31.5125 116.967335)scale(0.1 -0.1)">
       <defs>
        <path d="M 37.796875 64.3125 
L 12.890625 25.390625 
L 37.796875 25.390625 
z
M 35.203125 72.90625 
L 47.609375 72.90625 
L 47.609375 25.390625 
L 58.015625 25.390625 
L 58.015625 17.1875 
L 47.609375 17.1875 
L 47.609375 0 
L 37.796875 0 
L 37.796875 17.1875 
L 4.890625 17.1875 
L 4.890625 26.703125 
z
" id="DejaVuSans-52"/>
       </defs>
       <use xlink:href="#DejaVuSans-52"/>
       <use x="63.623047" xlink:href="#DejaVuSans-48"/>
       <use x="127.246094" xlink:href="#DejaVuSans-48"/>
      </g>
     </g>
    </g>
    <g id="ytick_6">
     <g id="line2d_25">
      <path clip-path="url(#pcf1180f02d)" d="M 57.6 70.596605 
L 414.72 70.596605 
" style="fill:none;stroke:#b0b0b0;stroke-linecap:square;stroke-width:0.8;"/>
     </g>
     <g id="line2d_26">
      <g>
       <use style="stroke:#000000;stroke-width:0.8;" x="57.6" xlink:href="#md812217f3d" y="70.596605"/>
      </g>
     </g>
     <g id="text_14">
      <!-- 500 -->
      <g transform="translate(31.5125 74.395823)scale(0.1 -0.1)">
       <use xlink:href="#DejaVuSans-53"/>
       <use x="63.623047" xlink:href="#DejaVuSans-48"/>
       <use x="127.246094" xlink:href="#DejaVuSans-48"/>
      </g>
     </g>
    </g>
    <g id="text_15">
     <!-- Fitness -->
     <g transform="translate(25.432812 191.845187)rotate(-90)scale(0.1 -0.1)">
      <defs>
       <path d="M 9.8125 72.90625 
L 51.703125 72.90625 
L 51.703125 64.59375 
L 19.671875 64.59375 
L 19.671875 43.109375 
L 48.578125 43.109375 
L 48.578125 34.8125 
L 19.671875 34.8125 
L 19.671875 0 
L 9.8125 0 
z
" id="DejaVuSans-70"/>
      </defs>
      <use xlink:href="#DejaVuSans-70"/>
      <use x="50.269531" xlink:href="#DejaVuSans-105"/>
      <use x="78.052734" xlink:href="#DejaVuSans-116"/>
      <use x="117.261719" xlink:href="#DejaVuSans-110"/>
      <use x="180.640625" xlink:href="#DejaVuSans-101"/>
      <use x="242.164062" xlink:href="#DejaVuSans-115"/>
      <use x="294.263672" xlink:href="#DejaVuSans-115"/>
     </g>
    </g>
   </g>
   <g id="line2d_27">
    <path clip-path="url(#pcf1180f02d)" d="M 73.832727 275.40389 
L 74.918528 270.940267 
L 76.00433 268.222076 
L 77.090131 268.205047 
L 78.175932 266.878945 
L 79.261733 267.51326 
L 80.347534 264.141596 
L 81.433335 266.69163 
L 83.604938 268.345533 
L 84.690739 271.11481 
L 85.77654 270.904081 
L 86.862341 271.402168 
L 87.948142 277.86878 
L 89.033943 278.569082 
L 90.119745 278.128466 
L 91.205546 277.97308 
L 92.291347 278.745753 
L 93.377148 278.426467 
L 94.462949 281.851345 
L 95.54875 281.819417 
L 96.634552 281.64913 
L 97.720353 283.00929 
L 99.891955 283.022062 
L 100.977756 273.2519 
L 102.063557 274.522659 
L 103.149358 275.227218 
L 104.23516 273.671229 
L 105.320961 272.855985 
L 106.406762 271.672497 
L 107.492563 269.788707 
L 108.578364 270.548609 
L 109.664165 268.96282 
L 110.749967 268.864906 
L 111.835768 267.581374 
L 112.921569 268.03689 
L 114.00737 269.497093 
L 115.093171 271.176539 
L 116.178972 269.48645 
L 117.264773 273.343429 
L 118.350575 272.853856 
L 119.436376 272.970928 
L 120.522177 278.622296 
L 121.607978 277.606965 
L 122.693779 277.902837 
L 123.77958 278.492453 
L 124.865382 278.786196 
L 125.951183 278.188067 
L 127.036984 281.989703 
L 128.122785 281.742788 
L 129.208586 281.719373 
L 130.294387 283.026319 
L 132.46599 283.045476 
L 133.551791 275.846633 
L 134.637592 275.563533 
L 135.723393 275.152718 
L 136.809194 274.584388 
L 137.894995 274.224659 
L 138.980797 274.316188 
L 140.066598 271.359596 
L 141.152399 270.239965 
L 143.324001 271.438353 
L 145.495604 270.401737 
L 146.581405 272.215284 
L 147.667206 270.327237 
L 148.753007 269.686536 
L 149.838808 273.188043 
L 150.924609 273.088 
L 152.01041 272.819799 
L 153.096212 278.420081 
L 154.182013 278.211481 
L 155.267814 277.79428 
L 156.353615 277.828337 
L 157.439416 278.70531 
L 158.525217 278.464781 
L 159.611019 281.842831 
L 160.69682 282.021631 
L 161.782621 282.062074 
L 162.868422 283.051862 
L 165.040024 283.019933 
L 166.125825 274.320445 
L 167.211627 274.918575 
L 168.297428 274.041601 
L 169.383229 274.182087 
L 170.46903 273.032657 
L 171.554831 274.175702 
L 172.640632 270.048394 
L 173.726434 270.970067 
L 174.812235 269.963251 
L 175.898036 270.723152 
L 176.983837 269.250178 
L 178.069638 266.785287 
L 179.155439 270.246351 
L 180.24124 270.657166 
L 181.327042 270.137794 
L 182.412843 273.209328 
L 183.498644 272.851728 
L 184.584445 271.749125 
L 185.670246 278.041195 
L 186.756047 278.000752 
L 187.841849 278.356224 
L 188.92765 278.356224 
L 190.013451 278.971382 
L 191.099252 278.686153 
L 192.185053 281.855602 
L 193.270854 281.774716 
L 194.356656 281.859859 
L 195.442457 283.058248 
L 197.614059 283.041219 
L 198.69986 275.244247 
L 199.785661 274.16293 
L 200.871462 271.493696 
L 201.957264 273.062457 
L 203.043065 271.483054 
L 204.128866 270.646523 
L 205.214667 267.398317 
L 206.300468 269.103306 
L 207.386269 267.609046 
L 208.472071 270.282537 
L 209.557872 270.887052 
L 210.643673 268.011347 
L 211.729474 269.792965 
L 212.815275 269.848307 
L 213.901076 270.401737 
L 214.986877 271.24891 
L 216.072679 272.781485 
L 217.15848 272.577141 
L 218.244281 278.066738 
L 219.330082 278.322167 
L 220.415883 278.209352 
L 221.501684 278.232767 
L 222.587486 278.375381 
L 223.673287 278.907525 
L 224.759088 281.883274 
L 226.93069 281.823674 
L 228.016491 283.047605 
L 230.188094 283.036962 
L 231.273895 274.920703 
L 232.359696 275.018618 
L 233.445497 274.812146 
L 234.531298 275.625262 
L 235.617099 273.153985 
L 237.788702 270.139922 
L 238.874503 271.466025 
L 239.960304 269.352349 
L 241.046105 268.741448 
L 242.131906 269.87385 
L 243.217708 269.116077 
L 244.303509 269.331064 
L 245.38931 270.684838 
L 246.475111 270.978581 
L 247.560912 272.560113 
L 248.646713 273.456243 
L 249.732514 272.164198 
L 250.818316 278.424338 
L 251.904117 278.558439 
L 252.989918 279.060783 
L 254.075719 278.298753 
L 255.16152 278.179552 
L 256.247321 278.899011 
L 257.333123 281.698088 
L 258.418924 281.636359 
L 259.504725 281.815159 
L 260.590526 283.08379 
L 262.762128 283.08379 
L 263.847929 273.890473 
L 264.933731 274.976046 
L 267.105333 272.60907 
L 268.191134 273.107157 
L 269.276935 274.186345 
L 270.362736 272.291912 
L 271.448538 273.258286 
L 272.534339 271.18931 
L 273.62014 270.331494 
L 274.705941 270.499652 
L 275.791742 271.844911 
L 276.877543 272.521798 
L 277.963344 272.630356 
L 279.049146 273.047557 
L 280.134947 273.724444 
L 281.220748 275.095246 
L 282.306549 272.60907 
L 283.39235 278.564824 
L 284.478151 278.115695 
L 285.563953 277.800666 
L 286.649754 278.447753 
L 288.821356 277.142936 
L 289.907157 281.214901 
L 290.992958 281.097829 
L 292.07876 281.338358 
L 293.164561 283.071019 
L 295.336163 283.034833 
L 296.421964 272.219541 
L 298.593566 267.332331 
L 299.679368 271.355339 
L 300.765169 268.486019 
L 301.85097 268.886191 
L 302.936771 265.859357 
L 304.022572 267.477074 
L 305.108373 268.594576 
L 306.194175 266.961959 
L 307.279976 270.003693 
L 308.365777 269.15652 
L 309.451578 269.090535 
L 310.537379 270.201651 
L 311.62318 270.433666 
L 312.708981 271.723583 
L 313.794783 272.762327 
L 314.880584 272.606941 
L 315.966385 277.885809 
L 317.052186 277.51118 
L 318.137987 278.134852 
L 319.223788 277.94328 
L 321.395391 277.92838 
L 322.481192 281.57463 
L 323.566993 281.302173 
L 324.652794 281.229801 
L 325.738595 283.096562 
L 327.910198 283.041219 
L 328.995999 272.890042 
L 330.0818 271.168024 
L 331.167601 271.408553 
L 332.253402 269.684407 
L 333.339203 267.044973 
L 334.425005 265.28677 
L 335.510806 265.661399 
L 336.596607 268.822334 
L 337.682408 263.192252 
L 338.768209 265.486856 
L 339.85401 263.62861 
L 340.939811 262.517493 
L 342.025613 266.129686 
L 343.111414 267.089674 
L 344.197215 266.461744 
L 345.283016 269.603521 
L 346.368817 268.660562 
L 347.454618 270.184622 
L 348.54042 277.021607 
L 349.626221 276.408577 
L 351.797823 277.426037 
L 352.883624 277.953923 
L 353.969425 278.168909 
L 355.055227 281.432016 
L 356.141028 281.642745 
L 357.226829 281.434144 
L 358.31263 283.105076 
L 360.484232 283.058248 
L 361.570033 271.974754 
L 362.655835 271.561811 
L 363.741636 269.537535 
L 364.827437 267.898532 
L 365.913238 264.916398 
L 366.999039 263.909582 
L 368.08484 266.983245 
L 369.170642 267.549446 
L 370.256443 267.034331 
L 371.342244 267.202488 
L 372.428045 265.410227 
L 373.513846 269.133106 
L 374.599647 267.698446 
L 375.685448 268.139061 
L 376.77125 268.292319 
L 377.857051 270.595438 
L 378.942852 271.291482 
L 380.028653 268.328505 
L 381.114454 276.280863 
L 382.200255 277.142936 
L 383.286057 276.063748 
L 384.371858 276.549063 
L 385.457659 276.453278 
L 386.54346 275.693376 
L 387.629261 280.882843 
L 389.800863 281.280887 
L 390.886665 283.073148 
L 393.058267 283.013547 
L 394.144068 267.772946 
L 395.229869 267.447274 
L 396.31567 265.714614 
L 397.401472 262.113064 
L 398.487273 262.666493 
L 398.487273 262.666493 
" style="fill:none;stroke:#0000ff;stroke-linecap:square;stroke-width:1.5;"/>
   </g>
   <g id="line2d_28">
    <path clip-path="url(#pcf1180f02d)" d="M 73.832727 286.490249 
L 74.918528 283.420321 
L 76.00433 282.370246 
L 77.090131 281.50282 
L 78.175932 280.940765 
L 79.261733 280.668456 
L 80.347534 277.641208 
L 81.433335 276.872136 
L 82.519137 277.608579 
L 83.604938 278.05137 
L 84.690739 279.496802 
L 85.77654 279.857565 
L 86.862341 279.335034 
L 87.948142 282.680032 
L 90.119745 283.405444 
L 91.205546 282.21636 
L 92.291347 282.460137 
L 93.377148 282.206086 
L 94.462949 283.594688 
L 95.54875 283.611187 
L 97.720353 283.247453 
L 99.891955 283.241119 
L 100.977756 284.440142 
L 102.063557 284.726062 
L 103.149358 285.520191 
L 104.23516 286.148674 
L 105.320961 284.941601 
L 106.406762 283.510741 
L 107.492563 281.517758 
L 108.578364 282.108133 
L 109.664165 281.297311 
L 110.749967 280.790835 
L 111.835768 280.106618 
L 112.921569 280.862852 
L 114.00737 279.069046 
L 115.093171 280.19431 
L 116.178972 279.46031 
L 117.264773 280.67213 
L 118.350575 279.930082 
L 119.436376 280.273703 
L 120.522177 283.297949 
L 121.607978 282.503148 
L 122.693779 283.148097 
L 123.77958 282.623118 
L 124.865382 282.703094 
L 125.951183 282.3134 
L 127.036984 283.690774 
L 131.380189 283.289594 
L 132.46599 283.293124 
L 133.551791 285.871597 
L 134.637592 285.168281 
L 135.723393 285.189307 
L 136.809194 287.347309 
L 137.894995 285.416252 
L 138.980797 286.007155 
L 140.066598 283.707991 
L 141.152399 282.150014 
L 142.2382 282.563031 
L 143.324001 283.462408 
L 144.409802 282.882427 
L 145.495604 283.599142 
L 146.581405 281.294401 
L 147.667206 280.241444 
L 148.753007 280.225151 
L 149.838808 281.433758 
L 150.924609 281.403595 
L 152.01041 280.798404 
L 153.096212 283.670624 
L 154.182013 283.515792 
L 155.267814 283.699886 
L 156.353615 282.596513 
L 157.439416 282.755671 
L 158.525217 283.060959 
L 159.611019 283.637349 
L 161.782621 283.849424 
L 162.868422 283.314971 
L 165.040024 283.278746 
L 166.125825 284.940804 
L 167.211627 285.215932 
L 168.297428 285.028499 
L 169.383229 286.229837 
L 170.46903 286.71322 
L 171.554831 285.689647 
L 172.640632 282.638913 
L 173.726434 282.87822 
L 174.812235 282.169282 
L 175.898036 283.527952 
L 176.983837 283.29182 
L 179.155439 280.439489 
L 180.24124 281.451176 
L 181.327042 279.887893 
L 182.412843 280.808203 
L 183.498644 281.150508 
L 184.584445 280.908532 
L 185.670246 283.390213 
L 186.756047 283.455455 
L 187.841849 283.97041 
L 188.92765 282.965254 
L 190.013451 283.186588 
L 191.099252 283.267093 
L 192.185053 283.862115 
L 193.270854 283.622633 
L 194.356656 283.739283 
L 195.442457 283.304685 
L 197.614059 283.277903 
L 198.69986 286.744496 
L 199.785661 286.191355 
L 200.871462 284.605901 
L 201.957264 286.791369 
L 203.043065 286.124408 
L 204.128866 284.616518 
L 205.214667 281.422149 
L 206.300468 283.39032 
L 207.386269 281.717322 
L 208.472071 283.720418 
L 209.557872 283.101735 
L 210.643673 283.256522 
L 211.729474 281.236088 
L 212.815275 281.238223 
L 213.901076 280.793934 
L 214.986877 280.923056 
L 216.072679 281.974222 
L 217.15848 281.877507 
L 218.244281 283.9196 
L 219.330082 283.996998 
L 220.415883 283.59423 
L 221.501684 282.91166 
L 222.587486 283.026698 
L 223.673287 283.261232 
L 224.759088 283.930866 
L 225.844889 283.735692 
L 226.93069 283.900147 
L 228.016491 283.304087 
L 230.188094 283.288674 
L 231.273895 285.20208 
L 232.359696 287.718712 
L 233.445497 286.946446 
L 234.531298 287.212832 
L 235.617099 285.742252 
L 236.702901 286.593793 
L 237.788702 282.223405 
L 238.874503 284.015197 
L 239.960304 283.518044 
L 241.046105 284.534426 
L 243.217708 284.313616 
L 244.303509 280.957642 
L 245.38931 281.416279 
L 246.475111 280.658635 
L 247.560912 281.561465 
L 248.646713 282.104232 
L 249.732514 281.608355 
L 250.818316 284.237817 
L 251.904117 283.773579 
L 252.989918 284.425259 
L 254.075719 283.248739 
L 255.16152 283.13082 
L 258.418924 283.957077 
L 259.504725 283.865564 
L 260.590526 283.347287 
L 262.762128 283.310301 
L 263.847929 287.03038 
L 264.933731 287.107491 
L 267.105333 286.596642 
L 268.191134 286.887325 
L 269.276935 286.770869 
L 270.362736 284.452929 
L 271.448538 285.157137 
L 272.534339 284.447202 
L 273.62014 284.984225 
L 274.705941 285.189384 
L 275.791742 285.588965 
L 276.877543 282.219581 
L 279.049146 282.947946 
L 280.134947 283.90646 
L 281.220748 283.66822 
L 282.306549 283.234047 
L 283.39235 284.583536 
L 284.478151 284.007635 
L 285.563953 284.449344 
L 286.649754 284.060131 
L 288.821356 282.416383 
L 289.907157 283.624704 
L 290.992958 283.612749 
L 292.07876 284.145145 
L 293.164561 283.400776 
L 295.336163 283.318749 
L 296.421964 287.790055 
L 297.507765 288.246043 
L 298.593566 287.226637 
L 299.679368 289.911116 
L 300.765169 289.605069 
L 301.85097 292.176589 
L 302.936771 285.049342 
L 304.022572 286.413833 
L 305.108373 286.807453 
L 306.194175 284.957237 
L 307.279976 286.805645 
L 308.365777 287.016235 
L 309.451578 283.166986 
L 310.537379 283.089174 
L 311.62318 283.39054 
L 312.708981 283.918125 
L 313.794783 283.732418 
L 314.880584 282.906341 
L 315.966385 284.769158 
L 317.052186 284.452274 
L 318.137987 284.583698 
L 319.223788 283.978113 
L 321.395391 283.430649 
L 322.481192 284.111934 
L 323.566993 283.905377 
L 324.652794 284.154696 
L 325.738595 283.383533 
L 327.910198 283.414564 
L 328.995999 290.650634 
L 330.0818 289.131187 
L 331.167601 288.709712 
L 332.253402 286.572671 
L 333.339203 287.221436 
L 334.425005 286.336992 
L 335.510806 284.540331 
L 336.596607 285.6046 
L 337.682408 283.869744 
L 338.768209 285.33483 
L 339.85401 283.051976 
L 340.939811 285.125602 
L 342.025613 282.566656 
L 343.111414 283.91192 
L 344.197215 282.958728 
L 345.283016 284.02596 
L 346.368817 281.785281 
L 347.454618 283.79427 
L 348.54042 284.021843 
L 349.626221 284.809065 
L 350.712022 284.610658 
L 352.883624 283.76729 
L 353.969425 283.685868 
L 355.055227 283.953008 
L 356.141028 284.043792 
L 357.226829 283.861466 
L 358.31263 283.408381 
L 360.484232 283.335812 
L 361.570033 288.068665 
L 362.655835 287.528062 
L 363.741636 288.572447 
L 364.827437 290.767314 
L 365.913238 289.456162 
L 366.999039 289.051193 
L 368.08484 285.561766 
L 369.170642 284.545241 
L 370.256443 285.671247 
L 371.342244 284.743937 
L 372.428045 285.302181 
L 373.513846 288.256438 
L 374.599647 284.565792 
L 375.685448 283.855241 
L 377.857051 283.668032 
L 381.114454 285.980046 
L 382.200255 286.26064 
L 383.286057 287.238347 
L 384.371858 284.79049 
L 386.54346 284.327705 
L 388.715062 284.8042 
L 389.800863 285.083931 
L 390.886665 283.401245 
L 393.058267 283.378218 
L 394.144068 291.688467 
L 395.229869 292.0423 
L 396.31567 293.613188 
L 397.401472 292.946664 
L 398.487273 295.488 
L 398.487273 295.488 
" style="fill:none;stroke:#008000;stroke-dasharray:9.6,2.4,1.5,2.4;stroke-dashoffset:0;stroke-width:1.5;"/>
   </g>
   <g id="line2d_29">
    <path clip-path="url(#pcf1180f02d)" d="M 73.832727 264.31753 
L 74.918528 258.460212 
L 76.00433 254.073905 
L 77.090131 254.907274 
L 78.175932 252.817124 
L 79.261733 254.358064 
L 80.347534 250.641984 
L 81.433335 256.511123 
L 82.519137 257.294483 
L 83.604938 258.639696 
L 84.690739 262.732818 
L 85.77654 261.950597 
L 86.862341 263.469301 
L 87.948142 273.057529 
L 89.033943 274.05792 
L 90.119745 272.851489 
L 91.205546 273.729801 
L 92.291347 275.03137 
L 93.377148 274.646848 
L 94.462949 280.108003 
L 96.634552 279.88088 
L 97.720353 282.771128 
L 98.806154 282.855948 
L 99.891955 282.803005 
L 100.977756 262.063658 
L 102.063557 264.319257 
L 103.149358 264.934245 
L 104.23516 261.193784 
L 105.320961 260.770368 
L 106.406762 259.834253 
L 107.492563 258.059657 
L 108.578364 258.989085 
L 109.664165 256.628329 
L 110.749967 256.938976 
L 111.835768 255.056131 
L 112.921569 255.210928 
L 114.00737 259.925139 
L 115.093171 262.158767 
L 116.178972 259.51259 
L 117.264773 266.014727 
L 118.350575 265.777631 
L 119.436376 265.668153 
L 120.522177 273.946643 
L 121.607978 272.710783 
L 122.693779 272.657578 
L 123.77958 274.361788 
L 124.865382 274.869299 
L 125.951183 274.062733 
L 127.036984 280.288631 
L 128.122785 279.909265 
L 129.208586 279.877479 
L 130.294387 282.748795 
L 132.46599 282.797828 
L 133.551791 265.82167 
L 134.637592 265.958785 
L 135.723393 265.116128 
L 136.809194 261.821468 
L 137.894995 263.033066 
L 138.980797 262.62522 
L 140.066598 259.011202 
L 141.152399 258.329917 
L 142.2382 259.023759 
L 143.324001 259.414299 
L 144.409802 258.900192 
L 145.495604 257.204332 
L 146.581405 263.136166 
L 147.667206 260.41303 
L 148.753007 259.14792 
L 149.838808 264.942327 
L 150.924609 264.772404 
L 152.01041 264.841194 
L 153.096212 273.169539 
L 154.182013 272.90717 
L 155.267814 271.888674 
L 156.353615 273.060161 
L 157.439416 274.65495 
L 158.525217 273.868604 
L 159.611019 280.048313 
L 160.69682 280.296998 
L 161.782621 280.274725 
L 162.868422 282.788752 
L 165.040024 282.761121 
L 166.125825 263.700086 
L 167.211627 264.621218 
L 168.297428 263.054704 
L 169.383229 262.134338 
L 170.46903 259.352093 
L 171.554831 262.661757 
L 172.640632 257.457874 
L 173.726434 259.061913 
L 174.812235 257.757219 
L 175.898036 257.918352 
L 176.983837 255.208535 
L 178.069638 251.662445 
L 179.155439 260.053213 
L 180.24124 259.863156 
L 181.327042 260.387694 
L 182.412843 265.610453 
L 183.498644 264.552947 
L 184.584445 262.589719 
L 185.670246 272.692177 
L 186.756047 272.546049 
L 187.841849 272.742038 
L 190.013451 274.756177 
L 191.099252 274.105213 
L 192.185053 279.849089 
L 194.356656 279.980436 
L 195.442457 282.81181 
L 197.614059 282.804535 
L 198.69986 263.743998 
L 199.785661 262.134505 
L 200.871462 258.381491 
L 201.957264 259.333544 
L 203.043065 256.841699 
L 204.128866 256.676529 
L 205.214667 253.374485 
L 206.300468 254.816292 
L 207.386269 253.50077 
L 208.472071 256.844656 
L 209.557872 258.672369 
L 210.643673 252.766172 
L 211.729474 258.349841 
L 212.815275 258.458392 
L 214.986877 261.574764 
L 216.072679 263.588748 
L 217.15848 263.276776 
L 218.244281 272.213875 
L 219.330082 272.647335 
L 220.415883 272.824475 
L 221.501684 273.553873 
L 222.587486 273.724064 
L 223.673287 274.553818 
L 224.759088 279.835681 
L 225.844889 280.030855 
L 226.93069 279.7472 
L 228.016491 282.791122 
L 230.188094 282.785249 
L 231.273895 264.639326 
L 232.359696 262.318523 
L 233.445497 262.677846 
L 234.531298 264.037691 
L 235.617099 260.565718 
L 236.702901 256.580915 
L 237.788702 258.05644 
L 238.874503 258.916853 
L 239.960304 255.186655 
L 241.046105 252.948471 
L 242.131906 255.291259 
L 243.217708 253.918539 
L 244.303509 257.704485 
L 245.38931 259.953397 
L 246.475111 261.298527 
L 247.560912 263.558761 
L 248.646713 264.808254 
L 249.732514 262.72004 
L 250.818316 272.61086 
L 251.904117 273.343298 
L 252.989918 273.696306 
L 254.075719 273.348766 
L 255.16152 273.228284 
L 256.247321 274.391655 
L 257.333123 279.658234 
L 258.418924 279.315642 
L 259.504725 279.764754 
L 260.590526 282.820294 
L 261.676327 282.732373 
L 262.762128 282.85728 
L 263.847929 260.750565 
L 264.933731 262.844601 
L 267.105333 258.621498 
L 268.191134 259.326988 
L 269.276935 261.60182 
L 270.362736 260.130895 
L 271.448538 261.359434 
L 272.534339 257.931418 
L 273.62014 255.678763 
L 274.705941 255.809919 
L 275.791742 258.100858 
L 276.877543 262.824016 
L 277.963344 262.73411 
L 280.134947 263.542428 
L 281.220748 266.522272 
L 282.306549 261.984093 
L 283.39235 272.546113 
L 284.478151 272.223755 
L 285.563953 271.151988 
L 286.649754 272.835374 
L 288.821356 271.869489 
L 289.907157 278.805098 
L 290.992958 278.582909 
L 292.07876 278.531572 
L 293.164561 282.741261 
L 295.336163 282.750918 
L 296.421964 256.649026 
L 297.507765 251.029114 
L 298.593566 247.438025 
L 299.679368 252.799562 
L 300.765169 247.366969 
L 301.85097 245.595794 
L 302.936771 246.669372 
L 305.108373 250.3817 
L 306.194175 248.966681 
L 307.279976 253.201742 
L 308.365777 251.296806 
L 309.451578 255.014083 
L 310.537379 257.314128 
L 311.62318 257.476792 
L 313.794783 261.792236 
L 314.880584 262.307542 
L 315.966385 271.00246 
L 317.052186 270.570086 
L 318.137987 271.686006 
L 321.395391 272.426112 
L 322.481192 279.037326 
L 324.652794 278.304907 
L 325.738595 282.809591 
L 327.910198 282.667874 
L 328.995999 255.12945 
L 330.0818 253.204862 
L 331.167601 254.107395 
L 332.253402 252.796143 
L 333.339203 246.868511 
L 334.425005 244.236548 
L 335.510806 246.782468 
L 336.596607 252.040068 
L 337.682408 242.51476 
L 338.768209 245.638883 
L 339.85401 244.205243 
L 340.939811 239.909385 
L 342.025613 249.692716 
L 343.111414 250.267427 
L 344.197215 249.96476 
L 345.283016 255.181082 
L 346.368817 255.535844 
L 347.454618 256.574975 
L 348.54042 270.021371 
L 349.626221 268.00809 
L 351.797823 270.705474 
L 352.883624 272.140556 
L 353.969425 272.651951 
L 355.055227 278.911024 
L 356.141028 279.241697 
L 357.226829 279.006822 
L 358.31263 282.801771 
L 360.484232 282.780683 
L 361.570033 255.880844 
L 362.655835 255.59556 
L 365.913238 240.376634 
L 366.999039 238.76797 
L 368.08484 248.404723 
L 369.170642 250.553651 
L 370.256443 248.397414 
L 371.342244 249.66104 
L 372.428045 245.518273 
L 373.513846 250.009775 
L 374.599647 250.8311 
L 375.685448 252.422882 
L 376.77125 252.777781 
L 377.857051 257.522843 
L 378.942852 258.098605 
L 380.028653 251.320937 
L 381.114454 266.581679 
L 382.200255 268.025232 
L 383.286057 264.889149 
L 384.371858 268.307637 
L 385.457659 268.328061 
L 386.54346 267.059047 
L 387.629261 277.146762 
L 388.715062 277.37443 
L 389.800863 277.477843 
L 390.886665 282.74505 
L 391.972466 282.561582 
L 393.058267 282.648877 
L 394.144068 243.857425 
L 395.229869 242.852249 
L 396.31567 237.81604 
L 397.401472 231.279464 
L 398.487273 229.844987 
L 398.487273 229.844987 
" style="fill:none;stroke:#008000;stroke-dasharray:9.6,2.4,1.5,2.4;stroke-dashoffset:0;stroke-width:1.5;"/>
   </g>
   <g id="line2d_30">
    <path clip-path="url(#pcf1180f02d)" d="M 73.832727 233.219779 
L 74.918528 229.388343 
L 76.00433 231.091203 
L 77.090131 238.754075 
L 78.175932 228.962628 
L 79.261733 231.091203 
L 80.347534 230.665488 
L 81.433335 241.734081 
L 82.519137 243.862657 
L 83.604938 244.288372 
L 84.690739 250.674099 
L 85.77654 246.842663 
L 86.862341 244.288372 
L 87.948142 262.168407 
L 89.033943 261.316977 
L 90.119745 258.762686 
L 91.205546 263.871267 
L 92.291347 263.871267 
L 93.377148 266.425558 
L 94.462949 274.93986 
L 95.54875 274.93986 
L 96.634552 276.642721 
L 97.720353 281.751302 
L 98.806154 282.602732 
L 99.891955 281.751302 
L 100.977756 240.456936 
L 102.063557 237.47693 
L 103.149358 237.47693 
L 104.23516 222.576901 
L 105.320961 223.428331 
L 106.406762 223.428331 
L 107.492563 242.159796 
L 108.578364 234.922639 
L 109.664165 233.219779 
L 110.749967 233.219779 
L 111.835768 233.645494 
L 112.921569 225.556907 
L 115.093171 243.011227 
L 116.178972 241.308366 
L 117.264773 251.525529 
L 118.350575 251.099814 
L 119.436376 248.119808 
L 120.522177 264.296982 
L 121.607978 264.722697 
L 122.693779 257.059825 
L 123.77958 264.722697 
L 124.865382 266.851273 
L 125.951183 265.574128 
L 127.036984 275.79129 
L 128.122785 274.514145 
L 129.208586 273.662715 
L 130.294387 280.899872 
L 131.380189 281.751302 
L 132.46599 282.177017 
L 133.551791 239.179791 
L 134.637592 238.754075 
L 135.723393 216.616889 
L 136.809194 184.262541 
L 137.894995 208.528302 
L 138.980797 210.231163 
L 140.066598 222.576901 
L 141.152399 226.408337 
L 142.2382 239.605506 
L 143.324001 233.645494 
L 144.409802 235.348354 
L 145.495604 237.47693 
L 146.581405 236.199785 
L 147.667206 231.516918 
L 148.753007 235.77407 
L 149.838808 245.139802 
L 150.924609 244.714087 
L 152.01041 243.011227 
L 153.096212 258.336971 
L 154.182013 256.208395 
L 155.267814 259.614116 
L 156.353615 262.168407 
L 157.439416 264.296982 
L 158.525217 261.742692 
L 159.611019 275.365575 
L 160.69682 275.79129 
L 161.782621 273.662715 
L 162.868422 281.751302 
L 165.040024 281.751302 
L 166.125825 241.308366 
L 167.211627 234.922639 
L 168.297428 234.922639 
L 169.383229 222.151186 
L 170.46903 220.448325 
L 171.554831 219.596895 
L 172.640632 220.874041 
L 173.726434 231.516918 
L 174.812235 229.814058 
L 175.898036 223.002616 
L 176.983837 228.111198 
L 178.069638 217.46832 
L 179.155439 241.734081 
L 180.24124 233.645494 
L 182.412843 248.545523 
L 183.498644 247.268378 
L 184.584445 239.605506 
L 185.670246 258.336971 
L 186.756047 260.891261 
L 187.841849 258.762686 
L 188.92765 264.722697 
L 190.013451 264.722697 
L 191.099252 260.891261 
L 192.185053 274.93986 
L 193.270854 274.514145 
L 194.356656 275.365575 
L 195.442457 281.751302 
L 197.614059 282.602732 
L 198.69986 232.794064 
L 199.785661 224.705477 
L 200.871462 230.665488 
L 201.957264 222.151186 
L 203.043065 214.914029 
L 204.128866 223.854046 
L 205.214667 224.705477 
L 206.300468 215.339744 
L 207.386269 225.131192 
L 208.472071 231.516918 
L 209.557872 235.77407 
L 210.643673 223.854046 
L 211.729474 228.536913 
L 212.815275 237.47693 
L 213.901076 237.47693 
L 214.986877 243.436942 
L 216.072679 240.456936 
L 217.15848 239.179791 
L 218.244281 256.208395 
L 219.330082 256.63411 
L 220.415883 260.891261 
L 221.501684 261.316977 
L 222.587486 260.039831 
L 223.673287 263.871267 
L 224.759088 273.662715 
L 225.844889 275.79129 
L 226.93069 273.237 
L 228.016491 282.177017 
L 229.102292 281.751302 
L 230.188094 282.177017 
L 231.273895 236.199785 
L 232.359696 216.616889 
L 233.445497 228.111198 
L 234.531298 225.556907 
L 235.617099 229.814058 
L 236.702901 224.705477 
L 237.788702 218.745465 
L 238.874503 220.02261 
L 239.960304 222.151186 
L 241.046105 209.805448 
L 242.131906 223.428331 
L 243.217708 213.636884 
L 244.303509 235.77407 
L 245.38931 235.348354 
L 246.475111 243.011227 
L 247.560912 243.862657 
L 248.646713 247.268378 
L 249.732514 244.288372 
L 250.818316 257.911256 
L 251.904117 261.742692 
L 252.989918 257.911256 
L 254.075719 263.871267 
L 255.16152 261.742692 
L 256.247321 261.742692 
L 257.333123 274.93986 
L 258.418924 271.108424 
L 259.504725 274.08843 
L 260.590526 281.751302 
L 261.676327 281.325587 
L 262.762128 282.177017 
L 263.847929 222.151186 
L 264.933731 212.785453 
L 266.019532 210.231163 
L 267.105333 192.351128 
L 269.276935 227.685482 
L 270.362736 223.428331 
L 271.448538 217.46832 
L 272.534339 225.556907 
L 273.62014 225.556907 
L 274.705941 224.705477 
L 275.791742 221.725471 
L 276.877543 238.754075 
L 277.963344 238.754075 
L 279.049146 239.179791 
L 280.134947 228.111198 
L 281.220748 247.268378 
L 282.306549 231.516918 
L 283.39235 258.336971 
L 284.478151 260.039831 
L 285.563953 245.139802 
L 286.649754 252.376959 
L 287.735555 254.93125 
L 288.821356 256.208395 
L 289.907157 267.276988 
L 290.992958 272.811285 
L 292.07876 263.871267 
L 293.164561 281.325587 
L 294.250362 281.751302 
L 295.336163 280.899872 
L 296.421964 200.86543 
L 297.507765 177.876814 
L 298.593566 162.976785 
L 299.679368 167.659651 
L 300.765169 166.382506 
L 301.85097 122.108134 
L 302.936771 194.479703 
L 304.022572 175.322523 
L 305.108373 179.579674 
L 306.194175 170.213942 
L 307.279976 212.785453 
L 308.365777 174.471093 
L 309.451578 208.528302 
L 310.537379 210.656878 
L 311.62318 217.46832 
L 312.708981 220.448325 
L 313.794783 228.962628 
L 314.880584 236.199785 
L 315.966385 247.268378 
L 317.052186 247.694093 
L 318.137987 238.754075 
L 319.223788 248.545523 
L 320.30959 252.376959 
L 321.395391 257.059825 
L 322.481192 272.811285 
L 323.566993 270.682709 
L 324.652794 264.296982 
L 325.738595 281.751302 
L 326.824396 281.751302 
L 327.910198 280.048442 
L 328.995999 142.542459 
L 330.0818 162.125355 
L 331.167601 154.462482 
L 332.253402 182.985395 
L 333.339203 143.819605 
L 334.425005 157.442488 
L 335.510806 173.619663 
L 336.596607 170.213942 
L 337.682408 156.165343 
L 338.768209 165.531075 
L 339.85401 171.916802 
L 340.939811 165.10536 
L 342.025613 168.511081 
L 343.111414 185.113971 
L 344.197215 188.093977 
L 345.283016 202.568291 
L 346.368817 204.271151 
L 347.454618 207.251157 
L 348.54042 231.091203 
L 349.626221 223.428331 
L 350.712022 247.694093 
L 351.797823 245.139802 
L 352.883624 254.505535 
L 353.969425 253.228389 
L 355.055227 267.702703 
L 356.141028 271.959854 
L 357.226829 271.108424 
L 358.31263 281.325587 
L 359.398431 282.177017 
L 360.484232 281.751302 
L 361.570033 197.885424 
L 363.741636 175.322523 
L 364.827437 154.036767 
L 365.913238 124.662424 
L 366.999039 137.433878 
L 368.08484 189.796837 
L 369.170642 195.331134 
L 370.256443 198.311139 
L 371.342244 192.351128 
L 372.428045 179.153959 
L 373.513846 174.471093 
L 374.599647 182.55968 
L 375.685448 176.599668 
L 376.77125 180.85682 
L 377.857051 202.142575 
L 378.942852 217.042605 
L 380.028653 166.808221 
L 381.114454 225.982622 
L 382.200255 217.46832 
L 383.286057 212.785453 
L 384.371858 235.77407 
L 385.457659 238.32836 
L 386.54346 240.456936 
L 387.629261 260.891261 
L 388.715062 263.019837 
L 389.800863 251.525529 
L 390.886665 281.325587 
L 391.972466 280.048442 
L 393.058267 280.899872 
L 394.144068 136.156732 
L 395.229869 99.545233 
L 396.31567 73.57661 
L 397.401472 56.973721 
L 398.487273 53.568 
L 398.487273 53.568 
" style="fill:none;stroke:#ff0000;stroke-linecap:square;stroke-width:1.5;"/>
   </g>
   <g id="patch_3">
    <path d="M 57.6 307.584 
L 57.6 41.472 
" style="fill:none;stroke:#000000;stroke-linecap:square;stroke-linejoin:miter;stroke-width:0.8;"/>
   </g>
   <g id="patch_4">
    <path d="M 414.72 307.584 
L 414.72 41.472 
" style="fill:none;stroke:#000000;stroke-linecap:square;stroke-linejoin:miter;stroke-width:0.8;"/>
   </g>
   <g id="patch_5">
    <path d="M 57.6 307.584 
L 414.72 307.584 
" style="fill:none;stroke:#000000;stroke-linecap:square;stroke-linejoin:miter;stroke-width:0.8;"/>
   </g>
   <g id="patch_6">
    <path d="M 57.6 41.472 
L 414.72 41.472 
" style="fill:none;stroke:#000000;stroke-linecap:square;stroke-linejoin:miter;stroke-width:0.8;"/>
   </g>
   <g id="text_16">
    <!-- Population's average and best fitness -->
    <g transform="translate(123.529687 35.472)scale(0.12 -0.12)">
     <defs>
      <path d="M 19.671875 64.796875 
L 19.671875 37.40625 
L 32.078125 37.40625 
Q 38.96875 37.40625 42.71875 40.96875 
Q 46.484375 44.53125 46.484375 51.125 
Q 46.484375 57.671875 42.71875 61.234375 
Q 38.96875 64.796875 32.078125 64.796875 
z
M 9.8125 72.90625 
L 32.078125 72.90625 
Q 44.34375 72.90625 50.609375 67.359375 
Q 56.890625 61.8125 56.890625 51.125 
Q 56.890625 40.328125 50.609375 34.8125 
Q 44.34375 29.296875 32.078125 29.296875 
L 19.671875 29.296875 
L 19.671875 0 
L 9.8125 0 
z
" id="DejaVuSans-80"/>
      <path d="M 18.109375 8.203125 
L 18.109375 -20.796875 
L 9.078125 -20.796875 
L 9.078125 54.6875 
L 18.109375 54.6875 
L 18.109375 46.390625 
Q 20.953125 51.265625 25.265625 53.625 
Q 29.59375 56 35.59375 56 
Q 45.5625 56 51.78125 48.09375 
Q 58.015625 40.1875 58.015625 27.296875 
Q 58.015625 14.40625 51.78125 6.484375 
Q 45.5625 -1.421875 35.59375 -1.421875 
Q 29.59375 -1.421875 25.265625 0.953125 
Q 20.953125 3.328125 18.109375 8.203125 
z
M 48.6875 27.296875 
Q 48.6875 37.203125 44.609375 42.84375 
Q 40.53125 48.484375 33.40625 48.484375 
Q 26.265625 48.484375 22.1875 42.84375 
Q 18.109375 37.203125 18.109375 27.296875 
Q 18.109375 17.390625 22.1875 11.75 
Q 26.265625 6.109375 33.40625 6.109375 
Q 40.53125 6.109375 44.609375 11.75 
Q 48.6875 17.390625 48.6875 27.296875 
z
" id="DejaVuSans-112"/>
      <path d="M 8.5 21.578125 
L 8.5 54.6875 
L 17.484375 54.6875 
L 17.484375 21.921875 
Q 17.484375 14.15625 20.5 10.265625 
Q 23.53125 6.390625 29.59375 6.390625 
Q 36.859375 6.390625 41.078125 11.03125 
Q 45.3125 15.671875 45.3125 23.6875 
L 45.3125 54.6875 
L 54.296875 54.6875 
L 54.296875 0 
L 45.3125 0 
L 45.3125 8.40625 
Q 42.046875 3.421875 37.71875 1 
Q 33.40625 -1.421875 27.6875 -1.421875 
Q 18.265625 -1.421875 13.375 4.4375 
Q 8.5 10.296875 8.5 21.578125 
z
M 31.109375 56 
z
" id="DejaVuSans-117"/>
      <path d="M 9.421875 75.984375 
L 18.40625 75.984375 
L 18.40625 0 
L 9.421875 0 
z
" id="DejaVuSans-108"/>
      <path d="M 17.921875 72.90625 
L 17.921875 45.796875 
L 9.625 45.796875 
L 9.625 72.90625 
z
" id="DejaVuSans-39"/>
      <path id="DejaVuSans-32"/>
      <path d="M 2.984375 54.6875 
L 12.5 54.6875 
L 29.59375 8.796875 
L 46.6875 54.6875 
L 56.203125 54.6875 
L 35.6875 0 
L 23.484375 0 
z
" id="DejaVuSans-118"/>
      <path d="M 45.40625 27.984375 
Q 45.40625 37.75 41.375 43.109375 
Q 37.359375 48.484375 30.078125 48.484375 
Q 22.859375 48.484375 18.828125 43.109375 
Q 14.796875 37.75 14.796875 27.984375 
Q 14.796875 18.265625 18.828125 12.890625 
Q 22.859375 7.515625 30.078125 7.515625 
Q 37.359375 7.515625 41.375 12.890625 
Q 45.40625 18.265625 45.40625 27.984375 
z
M 54.390625 6.78125 
Q 54.390625 -7.171875 48.1875 -13.984375 
Q 42 -20.796875 29.203125 -20.796875 
Q 24.46875 -20.796875 20.265625 -20.09375 
Q 16.0625 -19.390625 12.109375 -17.921875 
L 12.109375 -9.1875 
Q 16.0625 -11.328125 19.921875 -12.34375 
Q 23.78125 -13.375 27.78125 -13.375 
Q 36.625 -13.375 41.015625 -8.765625 
Q 45.40625 -4.15625 45.40625 5.171875 
L 45.40625 9.625 
Q 42.625 4.78125 38.28125 2.390625 
Q 33.9375 0 27.875 0 
Q 17.828125 0 11.671875 7.65625 
Q 5.515625 15.328125 5.515625 27.984375 
Q 5.515625 40.671875 11.671875 48.328125 
Q 17.828125 56 27.875 56 
Q 33.9375 56 38.28125 53.609375 
Q 42.625 51.21875 45.40625 46.390625 
L 45.40625 54.6875 
L 54.390625 54.6875 
z
" id="DejaVuSans-103"/>
      <path d="M 45.40625 46.390625 
L 45.40625 75.984375 
L 54.390625 75.984375 
L 54.390625 0 
L 45.40625 0 
L 45.40625 8.203125 
Q 42.578125 3.328125 38.25 0.953125 
Q 33.9375 -1.421875 27.875 -1.421875 
Q 17.96875 -1.421875 11.734375 6.484375 
Q 5.515625 14.40625 5.515625 27.296875 
Q 5.515625 40.1875 11.734375 48.09375 
Q 17.96875 56 27.875 56 
Q 33.9375 56 38.25 53.625 
Q 42.578125 51.265625 45.40625 46.390625 
z
M 14.796875 27.296875 
Q 14.796875 17.390625 18.875 11.75 
Q 22.953125 6.109375 30.078125 6.109375 
Q 37.203125 6.109375 41.296875 11.75 
Q 45.40625 17.390625 45.40625 27.296875 
Q 45.40625 37.203125 41.296875 42.84375 
Q 37.203125 48.484375 30.078125 48.484375 
Q 22.953125 48.484375 18.875 42.84375 
Q 14.796875 37.203125 14.796875 27.296875 
z
" id="DejaVuSans-100"/>
      <path d="M 48.6875 27.296875 
Q 48.6875 37.203125 44.609375 42.84375 
Q 40.53125 48.484375 33.40625 48.484375 
Q 26.265625 48.484375 22.1875 42.84375 
Q 18.109375 37.203125 18.109375 27.296875 
Q 18.109375 17.390625 22.1875 11.75 
Q 26.265625 6.109375 33.40625 6.109375 
Q 40.53125 6.109375 44.609375 11.75 
Q 48.6875 17.390625 48.6875 27.296875 
z
M 18.109375 46.390625 
Q 20.953125 51.265625 25.265625 53.625 
Q 29.59375 56 35.59375 56 
Q 45.5625 56 51.78125 48.09375 
Q 58.015625 40.1875 58.015625 27.296875 
Q 58.015625 14.40625 51.78125 6.484375 
Q 45.5625 -1.421875 35.59375 -1.421875 
Q 29.59375 -1.421875 25.265625 0.953125 
Q 20.953125 3.328125 18.109375 8.203125 
L 18.109375 0 
L 9.078125 0 
L 9.078125 75.984375 
L 18.109375 75.984375 
z
" id="DejaVuSans-98"/>
      <path d="M 37.109375 75.984375 
L 37.109375 68.5 
L 28.515625 68.5 
Q 23.6875 68.5 21.796875 66.546875 
Q 19.921875 64.59375 19.921875 59.515625 
L 19.921875 54.6875 
L 34.71875 54.6875 
L 34.71875 47.703125 
L 19.921875 47.703125 
L 19.921875 0 
L 10.890625 0 
L 10.890625 47.703125 
L 2.296875 47.703125 
L 2.296875 54.6875 
L 10.890625 54.6875 
L 10.890625 58.5 
Q 10.890625 67.625 15.140625 71.796875 
Q 19.390625 75.984375 28.609375 75.984375 
z
" id="DejaVuSans-102"/>
     </defs>
     <use xlink:href="#DejaVuSans-80"/>
     <use x="56.677734" xlink:href="#DejaVuSans-111"/>
     <use x="117.859375" xlink:href="#DejaVuSans-112"/>
     <use x="181.335938" xlink:href="#DejaVuSans-117"/>
     <use x="244.714844" xlink:href="#DejaVuSans-108"/>
     <use x="272.498047" xlink:href="#DejaVuSans-97"/>
     <use x="333.777344" xlink:href="#DejaVuSans-116"/>
     <use x="372.986328" xlink:href="#DejaVuSans-105"/>
     <use x="400.769531" xlink:href="#DejaVuSans-111"/>
     <use x="461.951172" xlink:href="#DejaVuSans-110"/>
     <use x="525.330078" xlink:href="#DejaVuSans-39"/>
     <use x="552.820312" xlink:href="#DejaVuSans-115"/>
     <use x="604.919922" xlink:href="#DejaVuSans-32"/>
     <use x="636.707031" xlink:href="#DejaVuSans-97"/>
     <use x="697.986328" xlink:href="#DejaVuSans-118"/>
     <use x="757.166016" xlink:href="#DejaVuSans-101"/>
     <use x="818.689453" xlink:href="#DejaVuSans-114"/>
     <use x="859.802734" xlink:href="#DejaVuSans-97"/>
     <use x="921.082031" xlink:href="#DejaVuSans-103"/>
     <use x="984.558594" xlink:href="#DejaVuSans-101"/>
     <use x="1046.082031" xlink:href="#DejaVuSans-32"/>
     <use x="1077.869141" xlink:href="#DejaVuSans-97"/>
     <use x="1139.148438" xlink:href="#DejaVuSans-110"/>
     <use x="1202.527344" xlink:href="#DejaVuSans-100"/>
     <use x="1266.003906" xlink:href="#DejaVuSans-32"/>
     <use x="1297.791016" xlink:href="#DejaVuSans-98"/>
     <use x="1361.267578" xlink:href="#DejaVuSans-101"/>
     <use x="1422.791016" xlink:href="#DejaVuSans-115"/>
     <use x="1474.890625" xlink:href="#DejaVuSans-116"/>
     <use x="1514.099609" xlink:href="#DejaVuSans-32"/>
     <use x="1545.886719" xlink:href="#DejaVuSans-102"/>
     <use x="1581.091797" xlink:href="#DejaVuSans-105"/>
     <use x="1608.875" xlink:href="#DejaVuSans-116"/>
     <use x="1648.083984" xlink:href="#DejaVuSans-110"/>
     <use x="1711.462891" xlink:href="#DejaVuSans-101"/>
     <use x="1772.986328" xlink:href="#DejaVuSans-115"/>
     <use x="1825.085938" xlink:href="#DejaVuSans-115"/>
    </g>
   </g>
   <g id="legend_1">
    <g id="patch_7">
     <path d="M 64.6 108.1845 
L 137.540625 108.1845 
Q 139.540625 108.1845 139.540625 106.1845 
L 139.540625 48.472 
Q 139.540625 46.472 137.540625 46.472 
L 64.6 46.472 
Q 62.6 46.472 62.6 48.472 
L 62.6 106.1845 
Q 62.6 108.1845 64.6 108.1845 
z
" style="fill:#ffffff;opacity:0.8;stroke:#cccccc;stroke-linejoin:miter;"/>
    </g>
    <g id="line2d_31">
     <path d="M 66.6 54.570438 
L 86.6 54.570438 
" style="fill:none;stroke:#0000ff;stroke-linecap:square;stroke-width:1.5;"/>
    </g>
    <g id="line2d_32"/>
    <g id="text_17">
     <!-- average -->
     <g transform="translate(94.6 58.070438)scale(0.1 -0.1)">
      <use xlink:href="#DejaVuSans-97"/>
      <use x="61.279297" xlink:href="#DejaVuSans-118"/>
      <use x="120.458984" xlink:href="#DejaVuSans-101"/>
      <use x="181.982422" xlink:href="#DejaVuSans-114"/>
      <use x="223.095703" xlink:href="#DejaVuSans-97"/>
      <use x="284.375" xlink:href="#DejaVuSans-103"/>
      <use x="347.851562" xlink:href="#DejaVuSans-101"/>
     </g>
    </g>
    <g id="line2d_33">
     <path d="M 66.6 69.248563 
L 86.6 69.248563 
" style="fill:none;stroke:#008000;stroke-dasharray:9.6,2.4,1.5,2.4;stroke-dashoffset:0;stroke-width:1.5;"/>
    </g>
    <g id="line2d_34"/>
    <g id="text_18">
     <!-- -1 sd -->
     <g transform="translate(94.6 72.748563)scale(0.1 -0.1)">
      <defs>
       <path d="M 4.890625 31.390625 
L 31.203125 31.390625 
L 31.203125 23.390625 
L 4.890625 23.390625 
z
" id="DejaVuSans-45"/>
      </defs>
      <use xlink:href="#DejaVuSans-45"/>
      <use x="36.083984" xlink:href="#DejaVuSans-49"/>
      <use x="99.707031" xlink:href="#DejaVuSans-32"/>
      <use x="131.494141" xlink:href="#DejaVuSans-115"/>
      <use x="183.59375" xlink:href="#DejaVuSans-100"/>
     </g>
    </g>
    <g id="line2d_35">
     <path d="M 66.6 83.926688 
L 86.6 83.926688 
" style="fill:none;stroke:#008000;stroke-dasharray:9.6,2.4,1.5,2.4;stroke-dashoffset:0;stroke-width:1.5;"/>
    </g>
    <g id="line2d_36"/>
    <g id="text_19">
     <!-- +1 sd -->
     <g transform="translate(94.6 87.426688)scale(0.1 -0.1)">
      <defs>
       <path d="M 46 62.703125 
L 46 35.5 
L 73.1875 35.5 
L 73.1875 27.203125 
L 46 27.203125 
L 46 0 
L 37.796875 0 
L 37.796875 27.203125 
L 10.59375 27.203125 
L 10.59375 35.5 
L 37.796875 35.5 
L 37.796875 62.703125 
z
" id="DejaVuSans-43"/>
      </defs>
      <use xlink:href="#DejaVuSans-43"/>
      <use x="83.789062" xlink:href="#DejaVuSans-49"/>
      <use x="147.412109" xlink:href="#DejaVuSans-32"/>
      <use x="179.199219" xlink:href="#DejaVuSans-115"/>
      <use x="231.298828" xlink:href="#DejaVuSans-100"/>
     </g>
    </g>
    <g id="line2d_37">
     <path d="M 66.6 98.604813 
L 86.6 98.604813 
" style="fill:none;stroke:#ff0000;stroke-linecap:square;stroke-width:1.5;"/>
    </g>
    <g id="line2d_38"/>
    <g id="text_20">
     <!-- best -->
     <g transform="translate(94.6 102.104813)scale(0.1 -0.1)">
      <use xlink:href="#DejaVuSans-98"/>
      <use x="63.476562" xlink:href="#DejaVuSans-101"/>
      <use x="125" xlink:href="#DejaVuSans-115"/>
      <use x="177.099609" xlink:href="#DejaVuSans-116"/>
     </g>
    </g>
   </g>
  </g>
 </g>
 <defs>
  <clipPath id="pcf1180f02d">
   <rect height="266.112" width="357.12" x="57.6" y="41.472"/>
  </clipPath>
 </defs>
</svg>
