<?xml version="1.0" encoding="utf-8"?>
<!-- Generator: Adobe Illustrator 26.3.1, SVG Export Plug-In . SVG Version: 6.00 Build 0)  -->
<svg version="1.1" id="Layer_1" xmlns="http://www.w3.org/2000/svg" xmlns:xlink="http://www.w3.org/1999/xlink" x="0px" y="0px"
	 viewBox="0 0 1506 183" style="enable-background:new 0 0 1506 183;" xml:space="preserve">
<style type="text/css">
	.st0{fill:#FFFFFF;}
	.st1{fill:#D3D3D3;stroke:#000000;stroke-width:0.9997;stroke-miterlimit:3.999;}
	.st2{font-family:'Times-Roman';}
	.st3{font-size:8.9977px;}
	.st4{fill:#ADD8E6;stroke:#000000;stroke-width:0.9997;stroke-miterlimit:3.999;}
	.st5{fill:none;stroke:#008000;stroke-width:0.2899;stroke-miterlimit:3.999;stroke-dasharray:0.9997,4.9987;}
	.st6{fill:#008000;stroke:#008000;stroke-width:0.2899;stroke-miterlimit:3.999;}
	.st7{fill:none;stroke:#FF0000;stroke-width:0.3999;stroke-miterlimit:3.999;stroke-dasharray:0.9997,4.9987;}
	.st8{fill:#FF0000;stroke:#FF0000;stroke-width:0.3999;stroke-miterlimit:3.999;}
	.st9{fill:none;stroke:#008000;stroke-width:0.17;stroke-miterlimit:3.999;stroke-dasharray:0.9997,4.9987;}
	.st10{fill:#008000;stroke:#008000;stroke-width:0.17;stroke-miterlimit:3.999;}
	.st11{fill:none;stroke:#FF0000;stroke-width:0.16;stroke-miterlimit:3.999;stroke-dasharray:0.9997,4.9987;}
	.st12{fill:#FF0000;stroke:#FF0000;stroke-width:0.16;stroke-miterlimit:3.999;}
	.st13{fill:none;stroke:#FF0000;stroke-width:0.7498;stroke-miterlimit:3.999;stroke-dasharray:0.9997,4.9987;}
	.st14{fill:#FF0000;stroke:#FF0000;stroke-width:0.7498;stroke-miterlimit:3.999;}
	.st15{fill:none;stroke:#008000;stroke-width:0.3099;stroke-miterlimit:3.999;}
	.st16{fill:#008000;stroke:#008000;stroke-width:0.3099;stroke-miterlimit:3.999;}
	.st17{fill:none;stroke:#FF0000;stroke-width:0.6398;stroke-miterlimit:3.999;stroke-dasharray:0.9997,4.9987;}
	.st18{fill:#FF0000;stroke:#FF0000;stroke-width:0.6398;stroke-miterlimit:3.999;}
	.st19{fill:none;stroke:#FF0000;stroke-width:0.3399;stroke-miterlimit:3.999;}
	.st20{fill:#FF0000;stroke:#FF0000;stroke-width:0.3399;stroke-miterlimit:3.999;}
	.st21{fill:none;stroke:#FF0000;stroke-width:0.19;stroke-miterlimit:3.999;}
	.st22{fill:#FF0000;stroke:#FF0000;stroke-width:0.19;stroke-miterlimit:3.999;}
	.st23{fill:none;stroke:#008000;stroke-width:0.8898;stroke-miterlimit:3.999;stroke-dasharray:0.9997,4.9987;}
	.st24{fill:#008000;stroke:#008000;stroke-width:0.8898;stroke-miterlimit:3.999;}
	.st25{fill:none;stroke:#008000;stroke-width:0.19;stroke-miterlimit:3.999;stroke-dasharray:0.9997,4.9987;}
	.st26{fill:#008000;stroke:#008000;stroke-width:0.19;stroke-miterlimit:3.999;}
	.st27{fill:none;stroke:#FF0000;stroke-width:0.3599;stroke-miterlimit:3.999;}
	.st28{fill:#FF0000;stroke:#FF0000;stroke-width:0.3599;stroke-miterlimit:3.999;}
	.st29{fill:none;stroke:#FF0000;stroke-width:0.2099;stroke-miterlimit:3.999;}
	.st30{fill:#FF0000;stroke:#FF0000;stroke-width:0.2099;stroke-miterlimit:3.999;}
	.st31{fill:none;stroke:#008000;stroke-width:0.12;stroke-miterlimit:3.999;}
	.st32{fill:#008000;stroke:#008000;stroke-width:0.12;stroke-miterlimit:3.999;}
	.st33{fill:none;stroke:#FF0000;stroke-width:0.5798;stroke-miterlimit:3.999;stroke-dasharray:0.9997,4.9987;}
	.st34{fill:#FF0000;stroke:#FF0000;stroke-width:0.5798;stroke-miterlimit:3.999;}
	.st35{fill:none;stroke:#FF0000;stroke-width:1.1597;stroke-miterlimit:3.999;}
	.st36{fill:#FF0000;stroke:#FF0000;stroke-width:1.1597;stroke-miterlimit:3.999;}
	.st37{fill:none;stroke:#008000;stroke-width:0.5099;stroke-miterlimit:3.999;stroke-dasharray:0.9997,4.9987;}
	.st38{fill:#008000;stroke:#008000;stroke-width:0.5099;stroke-miterlimit:3.999;}
	.st39{fill:none;stroke:#008000;stroke-width:0.2399;stroke-miterlimit:3.999;stroke-dasharray:0.9997,4.9987;}
	.st40{fill:#008000;stroke:#008000;stroke-width:0.2399;stroke-miterlimit:3.999;}
	.st41{fill:none;stroke:#008000;stroke-width:0.2099;stroke-miterlimit:3.999;}
	.st42{fill:#008000;stroke:#008000;stroke-width:0.2099;stroke-miterlimit:3.999;}
	.st43{fill:none;stroke:#008000;stroke-width:0.3899;stroke-miterlimit:3.999;}
	.st44{fill:#008000;stroke:#008000;stroke-width:0.3899;stroke-miterlimit:3.999;}
	.st45{fill:none;stroke:#FF0000;stroke-width:0.6398;stroke-miterlimit:3.999;}
	.st46{fill:none;stroke:#FF0000;stroke-width:1.1997;stroke-miterlimit:3.999;}
	.st47{fill:#FF0000;stroke:#FF0000;stroke-width:1.1997;stroke-miterlimit:3.999;}
	.st48{fill:none;stroke:#008000;stroke-width:0.3599;stroke-miterlimit:3.999;stroke-dasharray:0.9997,4.9987;}
	.st49{fill:#008000;stroke:#008000;stroke-width:0.3599;stroke-miterlimit:3.999;}
	.st50{fill:none;stroke:#FF0000;stroke-width:0.5199;stroke-miterlimit:3.999;stroke-dasharray:0.9997,4.9987;}
	.st51{fill:#FF0000;stroke:#FF0000;stroke-width:0.5199;stroke-miterlimit:3.999;}
	.st52{fill:none;stroke:#008000;stroke-width:0.5898;stroke-miterlimit:3.999;}
	.st53{fill:#008000;stroke:#008000;stroke-width:0.5898;stroke-miterlimit:3.999;}
	.st54{fill:none;stroke:#008000;stroke-width:0.8398;stroke-miterlimit:3.999;stroke-dasharray:0.9997,4.9987;}
	.st55{fill:#008000;stroke:#008000;stroke-width:0.8398;stroke-miterlimit:3.999;}
	.st56{fill:none;stroke:#008000;stroke-width:0.2399;stroke-miterlimit:3.999;}
	.st57{fill:none;stroke:#FF0000;stroke-width:0.13;stroke-miterlimit:3.999;stroke-dasharray:0.9997,4.9987;}
	.st58{fill:#FF0000;stroke:#FF0000;stroke-width:0.13;stroke-miterlimit:3.999;}
	.st59{fill:none;stroke:#008000;stroke-width:0.3999;stroke-miterlimit:3.999;stroke-dasharray:0.9997,4.9987;}
	.st60{fill:#008000;stroke:#008000;stroke-width:0.3999;stroke-miterlimit:3.999;}
	.st61{fill:none;stroke:#FF0000;stroke-width:0.5499;stroke-miterlimit:3.999;}
	.st62{fill:#FF0000;stroke:#FF0000;stroke-width:0.5499;stroke-miterlimit:3.999;}
	.st63{fill:none;stroke:#008000;stroke-width:0.15;stroke-miterlimit:3.999;stroke-dasharray:0.9997,4.9987;}
	.st64{fill:#008000;stroke:#008000;stroke-width:0.15;stroke-miterlimit:3.999;}
	.st65{fill:none;stroke:#008000;stroke-width:0.18;stroke-miterlimit:3.999;}
	.st66{fill:#008000;stroke:#008000;stroke-width:0.18;stroke-miterlimit:3.999;}
	.st67{fill:none;stroke:#FF0000;stroke-width:0.2299;stroke-miterlimit:3.999;}
	.st68{fill:#FF0000;stroke:#FF0000;stroke-width:0.2299;stroke-miterlimit:3.999;}
	.st69{fill:none;stroke:#FF0000;stroke-width:0.6198;stroke-miterlimit:3.999;}
	.st70{fill:#FF0000;stroke:#FF0000;stroke-width:0.6198;stroke-miterlimit:3.999;}
	.st71{fill:none;stroke:#008000;stroke-width:0.3899;stroke-miterlimit:3.999;stroke-dasharray:0.9997,4.9987;}
	.st72{fill:none;stroke:#008000;stroke-width:0.7798;stroke-miterlimit:3.999;stroke-dasharray:0.9997,4.9987;}
	.st73{fill:#008000;stroke:#008000;stroke-width:0.7798;stroke-miterlimit:3.999;}
	.st74{fill:none;stroke:#008000;stroke-width:0.14;stroke-miterlimit:3.999;}
	.st75{fill:#008000;stroke:#008000;stroke-width:0.14;stroke-miterlimit:3.999;}
	.st76{fill:none;stroke:#008000;stroke-width:0.15;stroke-miterlimit:3.999;}
	.st77{fill:none;stroke:#FF0000;stroke-width:0.2699;stroke-miterlimit:3.999;stroke-dasharray:0.9997,4.9987;}
	.st78{fill:#FF0000;stroke:#FF0000;stroke-width:0.2699;stroke-miterlimit:3.999;}
	.st79{fill:none;stroke:#FF0000;stroke-width:0.4199;stroke-miterlimit:3.999;stroke-dasharray:0.9997,4.9987;}
	.st80{fill:#FF0000;stroke:#FF0000;stroke-width:0.4199;stroke-miterlimit:3.999;}
	.st81{fill:none;stroke:#008000;stroke-width:0.2599;stroke-miterlimit:3.999;stroke-dasharray:0.9997,4.9987;}
	.st82{fill:#008000;stroke:#008000;stroke-width:0.2599;stroke-miterlimit:3.999;}
	.st83{fill:none;stroke:#008000;stroke-width:0.3999;stroke-miterlimit:3.999;}
	.st84{fill:none;stroke:#FF0000;stroke-width:0.3799;stroke-miterlimit:3.999;}
	.st85{fill:#FF0000;stroke:#FF0000;stroke-width:0.3799;stroke-miterlimit:3.999;}
	.st86{fill:none;stroke:#008000;stroke-width:0.3799;stroke-miterlimit:3.999;stroke-dasharray:0.9997,4.9987;}
	.st87{fill:#008000;stroke:#008000;stroke-width:0.3799;stroke-miterlimit:3.999;}
	.st88{fill:none;stroke:#008000;stroke-width:0.13;stroke-miterlimit:3.999;}
	.st89{fill:#008000;stroke:#008000;stroke-width:0.13;stroke-miterlimit:3.999;}
	.st90{fill:none;stroke:#FF0000;stroke-width:0.2299;stroke-miterlimit:3.999;stroke-dasharray:0.9997,4.9987;}
	.st91{fill:none;stroke:#008000;stroke-width:0.4599;stroke-miterlimit:3.999;stroke-dasharray:0.9997,4.9987;}
	.st92{fill:#008000;stroke:#008000;stroke-width:0.4599;stroke-miterlimit:3.999;}
	.st93{fill:none;stroke:#FF0000;stroke-width:0.3499;stroke-miterlimit:3.999;}
	.st94{fill:#FF0000;stroke:#FF0000;stroke-width:0.3499;stroke-miterlimit:3.999;}
	.st95{fill:none;stroke:#008000;stroke-width:0.4399;stroke-miterlimit:3.999;}
	.st96{fill:#008000;stroke:#008000;stroke-width:0.4399;stroke-miterlimit:3.999;}
	.st97{fill:none;stroke:#FF0000;stroke-width:0.14;stroke-miterlimit:3.999;}
	.st98{fill:#FF0000;stroke:#FF0000;stroke-width:0.14;stroke-miterlimit:3.999;}
	.st99{fill:#FFFFFF;stroke:#000000;stroke-width:0.9997;stroke-miterlimit:3.999;}
	.st100{fill:none;stroke:#008000;stroke-width:0.2899;stroke-miterlimit:3.999;}
	.st101{fill:none;stroke:#FF0000;stroke-width:0.5399;stroke-miterlimit:3.999;}
	.st102{fill:#FF0000;stroke:#FF0000;stroke-width:0.5399;stroke-miterlimit:3.999;}
	.st103{fill:none;stroke:#008000;stroke-width:0.2099;stroke-miterlimit:3.999;stroke-dasharray:0.9997,4.9987;}
	.st104{fill:none;stroke:#008000;stroke-width:0.1999;stroke-miterlimit:3.999;stroke-dasharray:0.9997,4.9987;}
	.st105{fill:#008000;stroke:#008000;stroke-width:0.1999;stroke-miterlimit:3.999;}
	.st106{fill:none;stroke:#FF0000;stroke-width:1.2397;stroke-miterlimit:3.999;stroke-dasharray:0.9997,4.9987;}
	.st107{fill:#FF0000;stroke:#FF0000;stroke-width:1.2397;stroke-miterlimit:3.999;}
	.st108{fill:none;stroke:#008000;stroke-width:0.9598;stroke-miterlimit:3.999;}
	.st109{fill:#008000;stroke:#008000;stroke-width:0.9598;stroke-miterlimit:3.999;}
	.st110{fill:none;stroke:#FF0000;stroke-width:0.2999;stroke-miterlimit:3.999;}
	.st111{fill:#FF0000;stroke:#FF0000;stroke-width:0.2999;stroke-miterlimit:3.999;}
	.st112{fill:none;stroke:#008000;stroke-width:0.3699;stroke-miterlimit:3.999;stroke-dasharray:0.9997,4.9987;}
	.st113{fill:#008000;stroke:#008000;stroke-width:0.3699;stroke-miterlimit:3.999;}
	.st114{fill:none;stroke:#FF0000;stroke-width:0.5299;stroke-miterlimit:3.999;}
	.st115{fill:#FF0000;stroke:#FF0000;stroke-width:0.5299;stroke-miterlimit:3.999;}
	.st116{fill:none;stroke:#FF0000;stroke-width:0.2999;stroke-miterlimit:3.999;stroke-dasharray:0.9997,4.9987;}
	.st117{fill:none;stroke:#FF0000;stroke-width:0.4099;stroke-miterlimit:3.999;}
	.st118{fill:#FF0000;stroke:#FF0000;stroke-width:0.4099;stroke-miterlimit:3.999;}
	.st119{fill:none;stroke:#FF0000;stroke-width:0.3399;stroke-miterlimit:3.999;stroke-dasharray:0.9997,4.9987;}
	.st120{fill:none;stroke:#FF0000;stroke-width:0.2199;stroke-miterlimit:3.999;}
	.st121{fill:#FF0000;stroke:#FF0000;stroke-width:0.2199;stroke-miterlimit:3.999;}
	.st122{fill:none;stroke:#008000;stroke-width:0.5099;stroke-miterlimit:3.999;}
	.st123{fill:none;stroke:#008000;stroke-width:0.16;stroke-miterlimit:3.999;}
	.st124{fill:#008000;stroke:#008000;stroke-width:0.16;stroke-miterlimit:3.999;}
	.st125{fill:none;stroke:#008000;stroke-width:0.4199;stroke-miterlimit:3.999;}
	.st126{fill:#008000;stroke:#008000;stroke-width:0.4199;stroke-miterlimit:3.999;}
	.st127{fill:none;stroke:#008000;stroke-width:0.3199;stroke-miterlimit:3.999;}
	.st128{fill:#008000;stroke:#008000;stroke-width:0.3199;stroke-miterlimit:3.999;}
	.st129{fill:none;stroke:#FF0000;stroke-width:0.8698;stroke-miterlimit:3.999;stroke-dasharray:0.9997,4.9987;}
	.st130{fill:#FF0000;stroke:#FF0000;stroke-width:0.8698;stroke-miterlimit:3.999;}
	.st131{fill:none;stroke:#FF0000;stroke-width:0.4699;stroke-miterlimit:3.999;}
	.st132{fill:#FF0000;stroke:#FF0000;stroke-width:0.4699;stroke-miterlimit:3.999;}
	.st133{fill:none;stroke:#008000;stroke-width:0.6198;stroke-miterlimit:3.999;stroke-dasharray:0.9997,4.9987;}
	.st134{fill:#008000;stroke:#008000;stroke-width:0.6198;stroke-miterlimit:3.999;}
	.st135{fill:none;stroke:#008000;stroke-width:0.4199;stroke-miterlimit:3.999;stroke-dasharray:0.9997,4.9987;}
	.st136{fill:none;stroke:#FF0000;stroke-width:0.4099;stroke-miterlimit:3.999;stroke-dasharray:0.9997,4.9987;}
	.st137{fill:none;stroke:#FF0000;stroke-width:0.2399;stroke-miterlimit:3.999;}
	.st138{fill:#FF0000;stroke:#FF0000;stroke-width:0.2399;stroke-miterlimit:3.999;}
	.st139{fill:none;stroke:#008000;stroke-width:0.14;stroke-miterlimit:3.999;stroke-dasharray:0.9997,4.9987;}
	.st140{fill:none;stroke:#FF0000;stroke-width:0.15;stroke-miterlimit:3.999;stroke-dasharray:0.9997,4.9987;}
	.st141{fill:#FF0000;stroke:#FF0000;stroke-width:0.15;stroke-miterlimit:3.999;}
	.st142{fill:none;stroke:#FF0000;stroke-width:0.3199;stroke-miterlimit:3.999;stroke-dasharray:0.9997,4.9987;}
	.st143{fill:#FF0000;stroke:#FF0000;stroke-width:0.3199;stroke-miterlimit:3.999;}
	.st144{fill:none;stroke:#008000;stroke-width:0.2499;stroke-miterlimit:3.999;stroke-dasharray:0.9997,4.9987;}
	.st145{fill:#008000;stroke:#008000;stroke-width:0.2499;stroke-miterlimit:3.999;}
	.st146{fill:none;stroke:#008000;stroke-width:0.2599;stroke-miterlimit:3.999;}
	.st147{fill:none;stroke:#FF0000;stroke-width:0.6298;stroke-miterlimit:3.999;}
	.st148{fill:#FF0000;stroke:#FF0000;stroke-width:0.6298;stroke-miterlimit:3.999;}
	.st149{fill:none;stroke:#FF0000;stroke-width:0.3699;stroke-miterlimit:3.999;stroke-dasharray:0.9997,4.9987;}
	.st150{fill:#FF0000;stroke:#FF0000;stroke-width:0.3699;stroke-miterlimit:3.999;}
	.st151{fill:none;stroke:#FF0000;stroke-width:0.12;stroke-miterlimit:3.999;stroke-dasharray:0.9997,4.9987;}
	.st152{fill:#FF0000;stroke:#FF0000;stroke-width:0.12;stroke-miterlimit:3.999;}
	.st153{fill:none;stroke:#FF0000;stroke-width:1.3397;stroke-miterlimit:3.999;}
	.st154{fill:#FF0000;stroke:#FF0000;stroke-width:1.3397;stroke-miterlimit:3.999;}
	.st155{fill:none;stroke:#008000;stroke-width:0.5499;stroke-miterlimit:3.999;stroke-dasharray:0.9997,4.9987;}
	.st156{fill:#008000;stroke:#008000;stroke-width:0.5499;stroke-miterlimit:3.999;}
	.st157{fill:none;stroke:#FF0000;stroke-width:0.16;stroke-miterlimit:3.999;}
	.st158{fill:none;stroke:#008000;stroke-width:0.6598;stroke-miterlimit:3.999;}
	.st159{fill:#008000;stroke:#008000;stroke-width:0.6598;stroke-miterlimit:3.999;}
	.st160{fill:none;stroke:#008000;stroke-width:0.4699;stroke-miterlimit:3.999;}
	.st161{fill:#008000;stroke:#008000;stroke-width:0.4699;stroke-miterlimit:3.999;}
	.st162{fill:none;stroke:#008000;stroke-width:0.3599;stroke-miterlimit:3.999;}
</style>
<g id="graph0" transform="scale(1 1) rotate(0) translate(4 178.85)">
	<polygon class="st0" points="-4,4.1 -4,-178.8 1502,-178.8 1502,4.1 	"/>
	<g id="node1">
		<polygon class="st1" points="837.1,-102.2 813.1,-102.2 813.1,-84.2 837.1,-84.2 		"/>
		<text transform="matrix(1 0 0 1 821.3477 -91.0043)" class="st2 st3">-1</text>
	</g>
	<g id="node27">
		<ellipse class="st4" cx="647.1" cy="-14.8" rx="14.7" ry="14.7"/>
		<text transform="matrix(1 0 0 1 644.8916 -12.5946)" class="st2 st3">2</text>
	</g>
	<g id="edge104">
		<path class="st5" d="M820.4-83.9c-3.7,5.9-9.4,13.5-16.3,18.3C762.9-37.1,704.6-24.3,671.9-19"/>
		<polygon class="st6" points="672.7,-15.6 662.3,-17.6 671.6,-22.5 		"/>
	</g>
	<g id="node28">
		<ellipse class="st4" cx="912.1" cy="-14.8" rx="14.7" ry="14.7"/>
		<text transform="matrix(1 0 0 1 909.8232 -12.5946)" class="st2 st3">3</text>
	</g>
	<g id="edge1">
		<path class="st7" d="M830.8-83.8c4,5.5,9.5,12.6,15.2,18.2C860-52,877.7-38.8,891.3-29.4"/>
		<polygon class="st8" points="893.1,-32.4 899.4,-23.9 889.2,-26.7 		"/>
	</g>
	<g id="node30">
		<ellipse class="st4" cx="825.1" cy="-14.8" rx="14.7" ry="14.7"/>
		<text transform="matrix(1 0 0 1 822.8457 -12.5946)" class="st2 st3">5</text>
	</g>
	<g id="edge2">
		<path class="st9" d="M825.1-83.7c0,10.5,0,28.9,0,43.8"/>
		<polygon class="st10" points="828.6,-40 825.1,-30 821.6,-40 		"/>
	</g>
	<g id="node33">
		<ellipse class="st4" cx="562.2" cy="-14.8" rx="14.7" ry="14.7"/>
		<text transform="matrix(1 0 0 1 559.9141 -12.5946)" class="st2 st3">8</text>
	</g>
	<g id="edge3">
		<path class="st11" d="M820.7-83.9c-3.6,6-9.4,13.9-16.6,18.3c-69.9,42.8-100.7,18.9-181,36c-12.1,2.6-25.4,5.6-36.6,8.1"/>
		<polygon class="st12" points="587.4,-18.1 576.9,-19.3 585.9,-24.9 		"/>
	</g>
	<g id="node2">
		<polygon class="st1" points="401.2,-102.2 377.2,-102.2 377.2,-84.2 401.2,-84.2 		"/>
		<text transform="matrix(1 0 0 1 385.4604 -91.0043)" class="st2 st3">-2</text>
	</g>
	<g id="node26">
		<ellipse class="st4" cx="431.2" cy="-14.8" rx="14.7" ry="14.7"/>
		<text transform="matrix(1 0 0 1 428.9478 -12.5946)" class="st2 st3">1</text>
	</g>
	<g id="edge4">
		<path class="st13" d="M393.9-83.7c6.1,11.1,17,30.9,25.5,46.3"/>
		<polygon class="st14" points="422.2,-39.5 423.9,-29.1 416,-36.1 		"/>
	</g>
	<g id="edge5">
		<path class="st15" d="M393.6-83.9c3.6,6,9.4,13.9,16.6,18.3c68,41.8,97.9,19.2,176,36c12.1,2.6,25.4,5.6,36.6,8.2"/>
		<polygon class="st16" points="623.2,-24.9 632.2,-19.3 621.6,-18.1 		"/>
	</g>
	<g id="node29">
		<ellipse class="st4" cx="979.1" cy="-14.8" rx="14.7" ry="14.7"/>
		<text transform="matrix(1 0 0 1 976.8057 -12.5946)" class="st2 st3">4</text>
	</g>
	<g id="edge6">
		<path class="st17" d="M393.3-83.9c3.5,6.2,9.3,14.3,16.9,18.3C513.8-11,821-51.8,936.1-29.6c6.3,1.2,12.9,3,19,5"/>
		<polygon class="st18" points="956.1,-28 964.4,-21.5 953.8,-21.4 		"/>
	</g>
	<g id="edge7">
		<path class="st19" d="M393.5-83.8c3.6,6.1,9.3,14,16.7,18.1c17.2,9.6,303.3,38.7,390.1,47.4"/>
		<polygon class="st20" points="800.4,-21.7 810,-17.3 799.8,-14.8 		"/>
	</g>
	<g id="node31">
		<ellipse class="st4" cx="335.2" cy="-14.8" rx="14.7" ry="14.7"/>
		<text transform="matrix(1 0 0 1 332.9727 -12.5946)" class="st2 st3">6</text>
	</g>
	<g id="edge111">
		<path class="st21" d="M383.2-83.7C375-72.1,360.1-50.9,349-35.3"/>
		<polygon class="st22" points="352.1,-33.7 343.5,-27.5 346.4,-37.7 		"/>
	</g>
	<g id="node32">
		<ellipse class="st4" cx="383.2" cy="-14.8" rx="14.7" ry="14.7"/>
		<text transform="matrix(1 0 0 1 380.96 -12.5946)" class="st2 st3">7</text>
	</g>
	<g id="edge8">
		<path class="st23" d="M388.5-83.7c-0.8,10.3-2.2,28.1-3.4,43"/>
		<polygon class="st24" points="388.7,-40.8 384.4,-31.1 381.7,-41.3 		"/>
	</g>
	<g id="edge9">
		<path class="st25" d="M393.9-83.9c3.7,5.9,9.4,13.5,16.3,18.3c39.7,27.7,95.8,40.8,127.5,46.3"/>
		<polygon class="st26" points="537.9,-22.8 547.2,-17.8 536.8,-15.9 		"/>
	</g>
	<g id="node3">
		<polygon class="st1" points="879.1,-102.2 855.1,-102.2 855.1,-84.2 879.1,-84.2 		"/>
		<text transform="matrix(1 0 0 1 863.3369 -91.0043)" class="st2 st3">-3</text>
	</g>
	<g id="node25">
		<ellipse class="st4" cx="1092" cy="-14.8" rx="14.7" ry="14.7"/>
		<text transform="matrix(1 0 0 1 1089.7764 -12.5946)" class="st2 st3">0</text>
	</g>
	<g id="edge109">
		<path class="st27" d="M872-83.8c3.9,5.9,9.9,13.6,17.1,18.1C918.8-47,1019.5-28.1,1067-19.9"/>
		<polygon class="st28" points="1067.5,-23.4 1076.7,-18.3 1066.3,-16.5 		"/>
	</g>
	<g id="edge10">
		<path class="st29" d="M862.5-83.8c-3.7,5.9-9.4,13.6-16.4,18.2C791-30,712.2-19.9,672.3-17"/>
		<polygon class="st30" points="672.7,-13.5 662.5,-16.3 672.2,-20.5 		"/>
	</g>
	<g id="edge11">
		<path class="st31" d="M862.4-83.7c-6.2,11.2-17.2,31.3-25.7,46.8"/>
		<polygon class="st32" points="839.8,-35.3 831.9,-28.2 833.7,-38.7 		"/>
	</g>
	<g id="edge12">
		<path class="st33" d="M862.7-83.9c-3.6,6.1-9.3,13.9-16.7,18.2c-86.5,50.8-124.4,16.9-222.9,36c-11.9,2.3-24.9,5.2-35.9,7.8"/>
		<polygon class="st34" points="588,-18.5 577.5,-19.6 586.4,-25.3 		"/>
	</g>
	<g id="node4">
		<polygon class="st1" points="619.1,-102.2 595.2,-102.2 595.2,-84.2 619.1,-84.2 		"/>
		<text transform="matrix(1 0 0 1 603.4043 -91.0043)" class="st2 st3">-4</text>
	</g>
	<g id="edge13">
		<path class="st35" d="M611.6-83.7c5.7,10.8,15.7,30,23.6,45.2"/>
		<polygon class="st36" points="638.2,-40.4 639.8,-29.9 632,-37.1 		"/>
	</g>
	<g id="edge101">
		<path class="st37" d="M619.4-85.4c11.7,6.2,29.9,15,46.7,19.8c116.4,33.2,151.9,9.3,269.9,36c6.4,1.4,13.1,3.4,19.4,5.4"/>
		<polygon class="st38" points="956.2,-27.7 964.6,-21.2 954,-21 		"/>
	</g>
	<g id="edge14">
		<path class="st5" d="M602.5-83.9c-3.9,6-9.9,13.9-17.3,18.3c-69.2,41.4-102.5,7.5-178,36c-1,0.4-2.1,0.8-3.1,1.3"/>
		<polygon class="st6" points="405.9,-25.4 395.4,-23.8 402.7,-31.6 		"/>
	</g>
	<g id="node5">
		<polygon class="st1" points="1346,-102.2 1322,-102.2 1322,-84.2 1346,-84.2 		"/>
		<text transform="matrix(1 0 0 1 1330.2158 -91.0043)" class="st2 st3">-5</text>
	</g>
	<g id="edge15">
		<path class="st39" d="M1327.8-83.8c-4.8,6-11.9,13.6-19.9,18.1c-62.7,35.2-148.9,45.6-190.9,48.6"/>
		<polygon class="st40" points="1117.5,-13.6 1107.3,-16.4 1117.1,-20.5 		"/>
	</g>
	<g id="edge110">
		<path class="st41" d="M1321.8-85.2c-11.6,6.3-29.8,15.1-46.8,19.6c-167,44.1-216.3,9.4-386.9,36c-12.9,2-27.1,5-38.7,7.8"/>
		<polygon class="st42" points="850.4,-18.5 839.8,-19.6 848.7,-25.3 		"/>
	</g>
	<g id="node6">
		<polygon class="st1" points="269.2,-102.2 245.2,-102.2 245.2,-84.2 269.2,-84.2 		"/>
		<text transform="matrix(1 0 0 1 253.4946 -91.0043)" class="st2 st3">-6</text>
	</g>
	<g id="edge100">
		<path class="st43" d="M261.5-83.8c3.6,6.1,9.3,14,16.7,18.1c120.3,67.2,172.1,12.7,307.9,36c12.2,2.1,25.6,5.1,36.8,7.7"/>
		<polygon class="st44" points="623.7,-25.3 632.6,-19.6 622.1,-18.5 		"/>
	</g>
	<g id="edge103">
		<path class="st45" d="M261.5-83.7c3.6,6.1,9.3,14,16.7,18.1c1.5,0.8,413.2,37.8,521.2,47.5"/>
		<polygon class="st18" points="799.6,-21.6 809.3,-17.2 799,-14.6 		"/>
	</g>
	<g id="edge16">
		<path class="st46" d="M263.1-84c4,5.4,9.6,12.6,15.1,18.3c11.5,12.1,25.6,24.4,36.9,33.8"/>
		<polygon class="st47" points="317.3,-34.6 322.8,-25.6 312.8,-29.2 		"/>
	</g>
	<g id="edge17">
		<path class="st48" d="M262.3-83.9c3.8,5.7,9.5,13.2,16,18.3c31.1,24.2,45.9,18.1,81,36c1,0.5,2,1,3,1.6"/>
		<polygon class="st49" points="363.6,-31.3 370.7,-23.4 360.2,-25.2 		"/>
	</g>
	<g id="node7">
		<polygon class="st1" points="443.2,-102.2 419.2,-102.2 419.2,-84.2 443.2,-84.2 		"/>
		<text transform="matrix(1 0 0 1 427.4497 -91.0043)" class="st2 st3">-7</text>
	</g>
	<g id="edge105">
		<path class="st50" d="M431.2-83.7c0,10.4,0,28.5,0,43.4"/>
		<polygon class="st51" points="434.7,-40.5 431.2,-30.5 427.7,-40.5 		"/>
	</g>
	<g id="edge18">
		<path class="st52" d="M435.8-83.8c3.7,5.9,9.4,13.6,16.4,18.2c7.2,4.7,119.4,31.8,170.2,44"/>
		<polygon class="st53" points="623.1,-25.1 632,-19.4 621.4,-18.3 		"/>
	</g>
	<g id="edge19">
		<path class="st54" d="M435.5-83.7c3.6,6.1,9.3,14,16.7,18.1c77.9,42.2,309.4,22.5,396.9,36c12.5,1.9,26.2,4.8,37.6,7.5"/>
		<polygon class="st55" points="887.5,-25.5 896.4,-19.8 885.9,-18.7 		"/>
	</g>
	<g id="edge20">
		<path class="st56" d="M435.5-83.8c3.6,6.1,9.3,14,16.7,18.2C482.5-48.4,721.5-25.3,800.1-18"/>
		<polygon class="st40" points="800.1,-21.6 809.8,-17.2 799.5,-14.6 		"/>
	</g>
	<g id="edge21">
		<path class="st57" d="M425.6-83.7c-3.9,5.5-9.5,12.7-15.4,18.1c-9,8.3-35.3,25.2-54.2,37"/>
		<polygon class="st58" points="358,-25.7 347.6,-23.4 354.3,-31.6 		"/>
	</g>
	<g id="node8">
		<polygon class="st1" points="359.2,-102.2 335.2,-102.2 335.2,-84.2 359.2,-84.2 		"/>
		<text transform="matrix(1 0 0 1 343.4712 -91.0043)" class="st2 st3">-8</text>
	</g>
	<g id="edge22">
		<path class="st31" d="M353-83.9c4,5.5,9.5,12.6,15.2,18.3c13.3,13.3,30.1,26.4,43,35.9"/>
		<polygon class="st32" points="413.2,-32.6 419.2,-24 409.1,-27 		"/>
	</g>
	<g id="edge23">
		<path class="st59" d="M351.6-83.9c3.6,6.1,9.3,13.9,16.6,18.2c84.6,49.9,121.6,17.1,217.9,36c12,2.3,25.2,5.3,36.3,7.9"/>
		<polygon class="st60" points="623.1,-25.2 632.1,-19.5 621.5,-18.4 		"/>
	</g>
	<g id="edge106">
		<path class="st61" d="M351.3-83.9c3.5,6.2,9.3,14.3,16.9,18.3c94.6,50.3,374.9,20.5,480.9,36c12.8,1.9,26.8,4.9,38.4,7.6"/>
		<polygon class="st62" points="888,-25.5 896.9,-19.8 886.3,-18.7 		"/>
	</g>
	<g id="edge24">
		<path class="st56" d="M351.5-83.7c3.6,6.1,9.3,14,16.7,18.1C387.3-55.1,707-26.2,799.9-18"/>
		<polygon class="st40" points="800.1,-21.5 809.7,-17.1 799.5,-14.5 		"/>
	</g>
	<g id="edge25">
		<path class="st27" d="M345.9-83.7c-1.6,10.5-4.5,28.9-6.9,43.8"/>
		<polygon class="st28" points="342.5,-39.6 337.5,-30.3 335.6,-40.7 		"/>
	</g>
	<g id="edge26">
		<path class="st29" d="M351.2-83.7c5.2,11,14.4,30.5,21.6,45.8"/>
		<polygon class="st30" points="375.9,-39.4 377,-28.9 369.6,-36.5 		"/>
	</g>
	<g id="edge27">
		<path class="st63" d="M351.8-83.8c3.7,5.9,9.4,13.6,16.4,18.2C421.6-30.9,498-20.3,537.1-17.2"/>
		<polygon class="st64" points="537.3,-20.7 547,-16.4 536.8,-13.7 		"/>
	</g>
	<g id="node9">
		<polygon class="st1" points="747.1,-102.2 723.1,-102.2 723.1,-84.2 747.1,-84.2 		"/>
		<text transform="matrix(1 0 0 1 731.3711 -91.0043)" class="st2 st3">-9</text>
	</g>
	<g id="edge28">
		<path class="st65" d="M739.8-83.8c3.8,6.1,9.8,14,17.4,18.2c96.3,54.2,136.7,19.5,245.9,36c21.6,3.3,46.2,7.1,64,9.9"/>
		<polygon class="st66" points="1067.6,-23.2 1077,-18.2 1066.5,-16.3 		"/>
	</g>
	<g id="edge108">
		<path class="st67" d="M729-83.9c-4.2,5.5-10,12.6-15.9,18.2C698.9-52,681-38.7,667.5-29.3"/>
		<polygon class="st68" points="669.8,-26.6 659.5,-23.9 665.8,-32.4 		"/>
	</g>
	<g id="edge29">
		<path class="st69" d="M740.1-83.9c3.9,5.9,9.9,13.5,17,18.3c21.6,14.6,92.8,34.1,130.7,43.8"/>
		<polygon class="st70" points="888.2,-25.3 897,-19.5 886.5,-18.5 		"/>
	</g>
	<g id="edge30">
		<path class="st71" d="M739.8-83.9c3.9,6,9.9,13.9,17.3,18.3c69.6,41.6,100.5,15.5,179,36c6.3,1.6,13.1,3.7,19.3,5.7"/>
		<polygon class="st44" points="956.3,-27.3 964.7,-20.9 954.1,-20.7 		"/>
	</g>
	<g id="edge31">
		<path class="st72" d="M741.2-83.8c4.2,5.5,10,12.6,15.9,18.2c14.4,13.6,32.6,26.7,46.5,36.1"/>
		<polygon class="st73" points="805.5,-32.5 811.9,-24.1 801.6,-26.7 		"/>
	</g>
	<g id="edge32">
		<path class="st65" d="M730.5-83.7c-3.8,6.1-9.8,14-17.4,18.1c-139.5,74.5-203.4-12.6-353.9,36c-1,0.3-2.1,0.7-3.2,1.2"/>
		<polygon class="st66" points="357.7,-25.4 347.2,-24 354.6,-31.6 		"/>
	</g>
	<g id="edge107">
		<path class="st74" d="M730.5-83.8c-3.8,6.1-9.8,14-17.4,18.1c-120.3,65.4-176-7.1-305.9,36c-1,0.3-2.1,0.7-3.1,1.2"/>
		<polygon class="st75" points="405.7,-25.4 395.2,-23.9 402.5,-31.6 		"/>
	</g>
	<g id="edge33">
		<path class="st76" d="M730.1-83.9c-3.9,5.9-9.9,13.5-17,18.3c-21,14.4-90.3,33.9-127.2,43.7"/>
		<polygon class="st64" points="587.2,-18.6 576.6,-19.5 585.4,-25.4 		"/>
	</g>
	<g id="node10">
		<polygon class="st1" points="140.8,-102.2 111.8,-102.2 111.8,-84.2 140.8,-84.2 		"/>
		<text transform="matrix(1 0 0 1 120.2793 -91.0043)" class="st2 st3">-10</text>
	</g>
	<g id="edge34">
		<path class="st15" d="M133-83.8c5.3,6.1,13.4,14,22.3,18.2c102.3,48.4,145-0.9,251.9,36c1,0.4,2.1,0.8,3.1,1.2"/>
		<polygon class="st16" points="411.7,-31.7 419,-24 408.5,-25.4 		"/>
	</g>
	<g id="edge35">
		<path class="st77" d="M133-83.9c5.4,6,13.4,13.9,22.3,18.3c82.5,40.7,117.5,4.5,203.9,36c1,0.4,2.1,0.8,3.1,1.3"/>
		<polygon class="st78" points="363.8,-31.6 371,-23.9 360.6,-25.4 		"/>
	</g>
	<g id="node11">
		<polygon class="st1" points="54.8,-102.2 25.8,-102.2 25.8,-84.2 54.8,-84.2 		"/>
		<text transform="matrix(1 0 0 1 34.4663 -91.0043)" class="st2 st3">-11</text>
	</g>
	<g id="edge97">
		<path class="st79" d="M47-83.9c5.4,6,13.5,13.9,22.2,18.3C150.4-25.1,260.4-17.4,309.6-16"/>
		<polygon class="st80" points="309.6,-19.5 319.6,-15.8 309.5,-12.5 		"/>
	</g>
	<g id="node12">
		<polygon class="st1" points="926.6,-102.2 897.6,-102.2 897.6,-84.2 926.6,-84.2 		"/>
		<text transform="matrix(1 0 0 1 906.0762 -91.0043)" class="st2 st3">-12</text>
	</g>
	<g id="edge36">
		<path class="st81" d="M906.8-83.9c-4.3,6-10.9,13.9-18.7,18.3C817.4-25.1,718.3-17.3,672.3-16"/>
		<polygon class="st82" points="672.6,-12.5 662.5,-15.8 672.4,-19.5 		"/>
	</g>
	<g id="edge37">
		<path class="st83" d="M912.1-83.7c0,10.4,0,28.5,0,43.4"/>
		<polygon class="st60" points="915.6,-40.3 912.1,-30.3 908.6,-40.3 		"/>
	</g>
	<g id="edge38">
		<path class="st84" d="M919.5-83.7c10.4,11.9,29.7,33.9,43.5,49.6"/>
		<polygon class="st85" points="965.3,-36.8 969.3,-26.9 960.1,-32.1 		"/>
	</g>
	<g id="edge39">
		<path class="st86" d="M905.3-84c-4.6,5.4-11,12.6-17.2,18.3c-13.6,12.7-30.1,25.8-42.9,35.3"/>
		<polygon class="st87" points="847.3,-27.5 837.2,-24.4 843.1,-33.2 		"/>
	</g>
	<g id="edge40">
		<path class="st5" d="M907.1-83.9c-4.2,6.2-10.9,14.3-19,18.3c-106,51.5-416.2,1.7-528.9,36c-1,0.3-2.1,0.7-3.2,1.1"/>
		<polygon class="st6" points="357.8,-25.5 347.3,-24.2 354.7,-31.8 		"/>
	</g>
	<g id="node13">
		<polygon class="st1" points="969.6,-174.8 940.6,-174.8 940.6,-156.8 969.6,-156.8 		"/>
		<text transform="matrix(1 0 0 1 949.0645 -163.5556)" class="st2 st3">-13</text>
	</g>
	<g id="edge41">
		<path class="st88" d="M970.1-164.6c80.8,0.7,462.4,6.3,496.9,43.9c16.6,18.1,16.2,36.7,0,55.1c-23.2,26.5-270.4,43.6-350.2,48.4"
			/>
		<polygon class="st89" points="1117.4,-13.8 1107.2,-16.7 1117,-20.7 		"/>
	</g>
	<g id="edge42">
		<path class="st76" d="M940.3-164.5c-104.1,2-725.2,15.3-752.1,43.7c-16.8,17.8-15.9,36.5,0,55.1c63.8,75.2,126.1,2.8,218.9,36
			c1,0.4,2.1,0.8,3.1,1.2"/>
		<polygon class="st64" points="411.9,-31.5 419.2,-23.8 408.7,-25.3 		"/>
	</g>
	<g id="edge43">
		<path class="st86" d="M940.4-164.3c-70.8,2.1-374.7,13-402.2,43.6c-16.4,18.2-13.2,34.5,0,55.1C556.6-37,596-24.6,622-19.4"/>
		<polygon class="st87" points="622.4,-22.9 631.7,-17.7 621.2,-16 		"/>
	</g>
	<g id="edge44">
		<path class="st90" d="M969.9-164.3c47,1.7,190.9,9.6,219.1,43.6c15.6,18.9,16,36.5,0,55.1c-34.2,39.9-182.7,23.9-233.9,36
			c-6.5,1.5-13.4,3.6-19.8,5.6"/>
		<polygon class="st68" points="936.8,-20.8 926.2,-21 934.6,-27.5 		"/>
	</g>
	<g id="edge45">
		<path class="st91" d="M969.9-165.2c57.5-1.2,264.6-2.1,305.1,44.4c16.1,18.5,15.8,36.4,0,55.1c-2.2,2.6-200.4,34.6-271.2,45.9"/>
		<polygon class="st92" points="1004.7,-16.3 994.3,-18.2 1003.6,-23.3 		"/>
	</g>
	<g id="edge46">
		<path class="st93" d="M955.9-156.3c1.3,18.6,1.8,63.3-19.8,90.6c-21.4,27.1-60.8,39.9-86.4,45.6"/>
		<polygon class="st94" points="850.6,-16.6 840.1,-18.1 849.2,-23.5 		"/>
	</g>
	<g id="edge47">
		<path class="st95" d="M940.1-164.6c-117.6,1-890.5,9-923.8,43.9C-71.2-29.1,220.1-17.4,309.8-16"/>
		<polygon class="st96" points="309.7,-19.5 319.7,-15.9 309.6,-12.5 		"/>
	</g>
	<g id="edge48">
		<path class="st97" d="M940.1-164.6c-111.3,1.5-807.8,12.2-837.8,43.8c-16.9,17.8-16.1,36.6,0,55.1c37.8,43.5,202.4,17.2,256.9,36
			c1,0.4,2.1,0.8,3.1,1.2"/>
		<polygon class="st98" points="363.9,-31.5 371.3,-23.9 360.8,-25.3 		"/>
	</g>
	<g id="node35">
		<ellipse class="st99" cx="1152" cy="-93.2" rx="27.6" ry="27.6"/>
		<text transform="matrix(1 0 0 1 1140.9277 -91.0043)" class="st2 st3">11402</text>
	</g>
	<g id="edge113">
		<path class="st100" d="M969.9-162.6c29.2,4.7,95.5,17.3,146.1,41.8c2.3,1.1,4.5,2.3,6.8,3.7"/>
		<polygon class="st6" points="1124.3,-120.2 1130.8,-111.8 1120.5,-114.4 		"/>
	</g>
	<g id="node14">
		<polygon class="st1" points="794.6,-102.2 765.6,-102.2 765.6,-84.2 794.6,-84.2 		"/>
		<text transform="matrix(1 0 0 1 774.1094 -91.0043)" class="st2 st3">-14</text>
	</g>
	<g id="edge49">
		<path class="st101" d="M785.4-83.9c4.3,6.1,10.9,13.9,18.7,18.2c11.6,6.4,194.4,35.3,262.5,45.9"/>
		<polygon class="st102" points="1067.1,-23.2 1076.5,-18.2 1066,-16.3 		"/>
	</g>
	<g id="edge50">
		<path class="st103" d="M774.9-83.8c-4.3,6.1-10.9,13.9-18.8,18.2c-13.3,7.2-226.7,36.5-300.2,46.5"/>
		<polygon class="st42" points="456.4,-15.7 446,-17.8 455.5,-22.6 		"/>
	</g>
	<g id="edge51">
		<path class="st21" d="M774.1-83.9c-4.5,5.7-11,13.2-18,18.3c-26.6,19.5-62.1,34-85.2,42.2"/>
		<polygon class="st22" points="672,-20.2 661.5,-20.2 669.8,-26.8 		"/>
	</g>
	<g id="node15">
		<polygon class="st1" points="704.6,-102.2 675.6,-102.2 675.6,-84.2 704.6,-84.2 		"/>
		<text transform="matrix(1 0 0 1 684.1328 -91.0043)" class="st2 st3">-15</text>
	</g>
	<g id="edge52">
		<path class="st104" d="M675.6-85.2c-12.4,5.8-30.8,13.9-47.5,19.6C567.3-45,493.4-28.5,455.8-20.7"/>
		<polygon class="st105" points="456.6,-17.3 446.1,-18.7 455.2,-24.2 		"/>
	</g>
	<g id="edge53">
		<path class="st106" d="M685.4-83.7c-6.1,10.9-17,30.2-25.6,45.4"/>
		<polygon class="st107" points="662.9,-36.7 655,-29.7 656.8,-40.1 		"/>
	</g>
	<g id="edge54">
		<path class="st108" d="M695.7-83.8c4.3,5.9,10.9,13.6,18.5,18.2c14.8,8.9,122.3,33.3,172.4,44.3"/>
		<polygon class="st109" points="887.2,-24.8 896.2,-19.2 885.7,-17.9 		"/>
	</g>
	<g id="edge102">
		<path class="st110" d="M696.1-83.9c4.5,5.7,11,13.2,18,18.3c27.3,19.8,63.6,34.3,87.2,42.4"/>
		<polygon class="st111" points="802.4,-26.6 810.7,-20.1 800.1,-19.9 		"/>
	</g>
	<g id="node16">
		<polygon class="st1" points="1106.5,-102.2 1077.5,-102.2 1077.5,-84.2 1106.5,-84.2 		"/>
		<text transform="matrix(1 0 0 1 1086.0293 -91.0043)" class="st2 st3">-16</text>
	</g>
	<g id="edge55">
		<path class="st112" d="M1092-83.7c0,10.5,0,28.9,0,43.8"/>
		<polygon class="st113" points="1095.5,-40.3 1092,-30.3 1088.5,-40.3 		"/>
	</g>
	<g id="edge56">
		<path class="st114" d="M1087.1-83.8c-4,6.1-10.3,14-18.1,18.1c-17.7,9.4-307.9,38.6-396.4,47.3"/>
		<polygon class="st115" points="673,-14.8 662.7,-17.3 672.3,-21.8 		"/>
	</g>
	<g id="edge57">
		<path class="st116" d="M1086.7-83.9c-4.2,5.9-10.4,13.5-17.7,18.3c-44.4,29.2-63.4,19.9-114,36c-6.2,2-12.9,4.1-19.2,6.2"/>
		<polygon class="st111" points="937,-20.2 926.4,-20.4 934.9,-26.8 		"/>
	</g>
	<g id="edge58">
		<path class="st117" d="M1086.2-84.1c-4.3,5.6-10.6,13.1-17.2,18.5c-20.7,16.8-47.9,31-66.9,39.8"/>
		<polygon class="st118" points="1003.6,-22.6 993,-21.7 1000.7,-29 		"/>
	</g>
	<g id="edge59">
		<path class="st103" d="M1087-83.9c-4.1,6-10.4,13.9-18,18.3c-70.9,41.2-100.7,19.2-181,36c-12.7,2.7-26.9,5.8-38.6,8.4"/>
		<polygon class="st42" points="850.4,-17.9 839.9,-19.1 848.9,-24.7 		"/>
	</g>
	<g id="edge60">
		<path class="st119" d="M1087.3-83.9c-4,6.2-10.4,14.3-18.3,18.3c-88.7,44.9-347.6,21-445.9,36c-12.4,1.9-25.9,4.9-37.1,7.6"/>
		<polygon class="st20" points="587.2,-18.7 576.6,-19.7 585.5,-25.5 		"/>
	</g>
	<g id="node17">
		<polygon class="st1" points="490.7,-102.2 461.7,-102.2 461.7,-84.2 490.7,-84.2 		"/>
		<text transform="matrix(1 0 0 1 470.1885 -91.0043)" class="st2 st3">-17</text>
	</g>
	<g id="edge61">
		<path class="st63" d="M491-84.3c12.3,6.2,30.4,14.4,47.2,18.6c172.2,43.5,223.9,0.6,397.9,36c6.6,1.3,13.5,3.3,19.9,5.4"/>
		<polygon class="st64" points="956.8,-27.7 965.1,-21.1 954.5,-21.1 		"/>
	</g>
	<g id="edge62">
		<path class="st120" d="M469.5-83.9c-4.6,5.5-11,12.6-17.3,18.2c-15.2,13.6-34,27-48.1,36.5"/>
		<polygon class="st121" points="406.1,-26.3 395.8,-23.7 402.2,-32.1 		"/>
	</g>
	<g id="edge63">
		<path class="st122" d="M485.3-83.8c5.7,5.2,13.2,12.1,19.9,18.1c12.6,11.3,27,23.9,38.2,33.6"/>
		<polygon class="st38" points="545.3,-35 550.6,-25.8 540.7,-29.7 		"/>
	</g>
	<g id="node18">
		<polygon class="st1" points="1012.5,-102.2 983.6,-102.2 983.6,-84.2 1012.5,-84.2 		"/>
		<text transform="matrix(1 0 0 1 992.0537 -91.0043)" class="st2 st3">-18</text>
	</g>
	<g id="edge64">
		<path class="st123" d="M1004.8-83.9c4.6,5.5,11,12.6,17.3,18.2c15.6,13.9,35.1,27.5,49.5,37"/>
		<polygon class="st124" points="1073.1,-31.8 1079.6,-23.5 1069.3,-26 		"/>
	</g>
	<g id="edge65">
		<path class="st57" d="M983.2-84.3c-12.3,6.2-30.4,14.4-47.2,18.6C763.9-22.1,714.7-49,538.2-29.6c-28.2,3.1-60.4,7.4-82.1,10.4"/>
		<polygon class="st58" points="456.6,-15.8 446.3,-17.9 455.7,-22.8 		"/>
	</g>
	<g id="edge66">
		<path class="st125" d="M983.1-84.6c-12.3,6-30.5,14.1-47.1,19c-95.3,28.2-213.3,42.4-263.9,47.5"/>
		<polygon class="st126" points="672.8,-14.7 662.5,-17.2 672.1,-21.6 		"/>
	</g>
	<g id="edge67">
		<path class="st120" d="M989-83.8c-5.7,5.2-13.2,12.1-19.9,18.1c-12.8,11.4-27.3,24.1-38.5,33.9"/>
		<polygon class="st121" points="933.2,-29.4 923.3,-25.5 928.6,-34.7 		"/>
	</g>
	<g id="edge68">
		<path class="st127" d="M996-83.7c-2.6,10.6-7.2,29.1-11,44.1"/>
		<polygon class="st128" points="988.4,-38.8 982.6,-29.9 981.6,-40.5 		"/>
	</g>
	<g id="edge69">
		<path class="st129" d="M990.7-83.8c-5.5,5.8-13.4,13.3-21.6,18.2c-38.5,23-89.1,37.4-118.9,44.5"/>
		<polygon class="st130" points="851.2,-17.8 840.7,-19 849.7,-24.6 		"/>
	</g>
	<g id="edge70">
		<path class="st131" d="M983.2-84.4c-12.3,6.1-30.4,14.3-47.1,18.7c-135.3,36-174.9,12.5-312.9,36c-12.2,2.1-25.6,5.1-36.8,7.7"/>
		<polygon class="st132" points="587.4,-18.6 576.8,-19.6 585.7,-25.4 		"/>
	</g>
	<g id="node19">
		<polygon class="st1" points="1416.4,-174.8 1387.4,-174.8 1387.4,-156.8 1416.4,-156.8 		"/>
		<text transform="matrix(1 0 0 1 1395.9492 -163.5556)" class="st2 st3">-19</text>
	</g>
	<g id="edge71">
		<path class="st133" d="M1416.9-162c20,4.7,54.8,16.1,70.1,41.2c12.7,20.9,16.2,36.8,0,55.1c-24.5,27.8-285.6,44-369.3,48.5"/>
		<polygon class="st134" points="1118,-13.6 1107.8,-16.6 1117.6,-20.6 		"/>
	</g>
	<g id="edge72">
		<path class="st135" d="M1387.2-164.4c-101.5,2.6-693.1,18.8-721.1,43.6c-22.4,19.8-24.1,56.4-22.3,80.7"/>
		<polygon class="st126" points="647.3,-40.5 644.8,-30.2 640.4,-39.8 		"/>
	</g>
	<g id="edge98">
		<path class="st136" d="M1400.7-156.4c-3.3,19.5-14.6,68.2-45.8,90.8c-52.1,37.7-223.3,27.1-286.9,36c-21.6,3-46,6.9-63.8,9.7"/>
		<polygon class="st118" points="1004.9,-16.5 994.4,-18.3 1003.8,-23.4 		"/>
	</g>
	<g id="node34">
		<ellipse class="st99" cx="1429.9" cy="-93.2" rx="27.6" ry="27.6"/>
		<text transform="matrix(1 0 0 1 1418.8564 -91.0043)" class="st2 st3">11620</text>
	</g>
	<g id="edge115">
		<path class="st137" d="M1405.3-156.4c2.8,7,6.9,17.4,11,27.8"/>
		<polygon class="st138" points="1419.5,-130.1 1419.9,-119.6 1412.9,-127.6 		"/>
	</g>
	<g id="node20">
		<polygon class="st1" points="1265.5,-102.2 1236.5,-102.2 1236.5,-84.2 1265.5,-84.2 		"/>
		<text transform="matrix(1 0 0 1 1244.9883 -91.0043)" class="st2 st3">-20</text>
	</g>
	<g id="edge73">
		<path class="st139" d="M1243.5-83.9c-5.5,5.7-13.4,13.2-21.5,18.2c-34.1,21.1-78.6,35.8-105.7,43.5"/>
		<polygon class="st75" points="1117.3,-18.8 1106.7,-19.5 1115.4,-25.5 		"/>
	</g>
	<g id="edge74">
		<path class="st90" d="M1236.2-84.3c-12.3,6.2-30.4,14.4-47.2,18.6C1182.6-64,777.6-27.5,672.1-18"/>
		<polygon class="st68" points="672.6,-14.6 662.3,-17.2 672,-21.5 		"/>
	</g>
	<g id="edge75">
		<path class="st140" d="M1244.3-83.8c-5.3,6.1-13.4,14-22.3,18.2c-108.4,50.8-150.2,9.5-266.9,36c-6.5,1.5-13.5,3.5-19.8,5.6"/>
		<polygon class="st141" points="936.7,-20.9 926.1,-21 934.4,-27.5 		"/>
	</g>
	<g id="edge76">
		<path class="st142" d="M1244-83.7c-5.4,6-13.4,13.7-22,18.1c-19.4,9.9-160,35.3-218,45.5"/>
		<polygon class="st143" points="1004.7,-16.7 994.3,-18.4 1003.5,-23.6 		"/>
	</g>
	<g id="edge77">
		<path class="st140" d="M1236.2-84.1c-12.2,6.3-30.3,14.6-47.2,18.4c-169.5,38.9-614.9-12.9-781.8,36c-1.1,0.3-2.1,0.7-3.2,1.1"/>
		<polygon class="st141" points="405.6,-25.4 395.1,-24.1 402.5,-31.7 		"/>
	</g>
	<g id="node21">
		<polygon class="st1" points="576.7,-102.2 547.7,-102.2 547.7,-84.2 576.7,-84.2 		"/>
		<text transform="matrix(1 0 0 1 556.1665 -91.0043)" class="st2 st3">-21</text>
	</g>
	<g id="edge78">
		<path class="st50" d="M569-84c4.6,5.4,11,12.5,17.2,18.4c13.1,12.4,28.9,25.3,41.1,34.8"/>
		<polygon class="st51" points="629.1,-33.8 634.8,-25 624.8,-28.3 		"/>
	</g>
	<g id="edge79">
		<path class="st144" d="M567.4-83.8c4.3,6.1,10.9,14,18.8,18.2c104.3,55.1,146.8,15.3,262.9,36c12.8,2.3,27,5.4,38.7,8"/>
		<polygon class="st145" points="888.3,-25.1 897.3,-19.4 886.7,-18.3 		"/>
	</g>
	<g id="edge112">
		<path class="st146" d="M567.3-83.7c4.2,6.1,10.8,14,18.8,18.1c139.4,70.7,196.9,3.9,349.9,36c6.4,1.3,13.2,3.3,19.4,5.3"/>
		<polygon class="st82" points="956.6,-27.7 964.9,-21.2 954.4,-21.1 		"/>
	</g>
	<g id="edge80">
		<path class="st69" d="M567.5-83.9c4.3,6,10.9,13.9,18.7,18.3c69.7,40,167.1,48.1,213.1,49.6"/>
		<polygon class="st70" points="799.1,-19.5 809,-15.8 799,-12.5 		"/>
	</g>
	<g id="edge81">
		<path class="st104" d="M547.4-85.2c-12.6,5.8-31.3,13.9-48.2,19.6c-60.9,20.5-80.5,11.7-140,36c-1,0.4-2,0.9-3.1,1.4"/>
		<polygon class="st105" points="357.8,-25.2 347.4,-23.6 354.6,-31.4 		"/>
	</g>
	<g id="edge82">
		<path class="st112" d="M547.2-85.8c-12.7,5.4-31.5,13.4-48,20.1c-40.7,16.5-52.4,17-92,36c-1,0.5-2,1-3,1.5"/>
		<polygon class="st113" points="406.2,-25.2 395.7,-23.5 402.8,-31.4 		"/>
	</g>
	<g id="edge83">
		<path class="st147" d="M562.2-83.7c0,10.4,0,28.5,0,43.4"/>
		<polygon class="st148" points="565.7,-40.7 562.2,-30.7 558.7,-40.7 		"/>
	</g>
	<g id="node22">
		<polygon class="st1" points="1059.5,-102.2 1030.5,-102.2 1030.5,-84.2 1059.5,-84.2 		"/>
		<text transform="matrix(1 0 0 1 1039.041 -91.0043)" class="st2 st3">-22</text>
	</g>
	<g id="edge99">
		<path class="st149" d="M1040.4-83.9c-4,6.2-10.4,14.3-18.3,18.3c-96.3,48.4-376.6,25.1-483.9,36c-28.1,2.9-60.2,7.1-81.8,10.2"/>
		<polygon class="st150" points="457,-16 446.6,-18.1 456,-22.9 		"/>
	</g>
	<g id="edge84">
		<path class="st151" d="M1039.4-83.9c-4.2,5.7-10.5,13.2-17.3,18.3c-26.8,20-62.8,34.4-86.2,42.4"/>
		<polygon class="st152" points="937.1,-19.9 926.5,-20.1 934.9,-26.6 		"/>
	</g>
	<g id="edge85">
		<path class="st153" d="M1037.7-83.7c-10,11.6-28.3,32.7-41.7,48.3"/>
		<polygon class="st154" points="998.8,-33.3 989.6,-28 993.5,-37.9 		"/>
	</g>
	<g id="edge86">
		<path class="st155" d="M1039.8-83.8c-4.1,5.9-10.4,13.6-17.8,18.2c-14.7,9.1-122.6,33.5-172.1,44.4"/>
		<polygon class="st156" points="850.8,-17.8 840.3,-19.1 849.3,-24.6 		"/>
	</g>
	<g id="node23">
		<polygon class="st1" points="226.8,-102.2 197.8,-102.2 197.8,-84.2 226.8,-84.2 		"/>
		<text transform="matrix(1 0 0 1 206.2568 -91.0043)" class="st2 st3">-23</text>
	</g>
	<g id="edge87">
		<path class="st7" d="M217.4-83.7c4.2,6.1,10.8,14,18.8,18.1C375.7,5.1,431.9-55,586.2-29.6c12.2,2,25.6,5,36.8,7.6"/>
		<polygon class="st8" points="623.7,-25.4 632.6,-19.6 622.1,-18.6 		"/>
	</g>
	<g id="edge88">
		<path class="st157" d="M218.3-84c4.5,5.7,11,13.1,17.9,18.4c23.7,18,54.9,32.5,75.9,41.1"/>
		<polygon class="st12" points="313.3,-27.9 321.3,-20.9 310.7,-21.3 		"/>
	</g>
	<g id="edge89">
		<path class="st125" d="M217.9-83.9c4.4,5.9,10.9,13.6,18.4,18.2c48.2,30.3,70.6,13.6,123,36c1,0.4,2,0.9,3.1,1.4"/>
		<polygon class="st126" points="363.6,-31.5 370.7,-23.7 360.3,-25.4 		"/>
	</g>
	<g id="edge90">
		<path class="st144" d="M217.5-83.8c4.3,6.1,10.9,14,18.8,18.2c13.3,7.2,227.4,36.6,301.2,46.5"/>
		<polygon class="st145" points="537.8,-22.6 547.2,-17.8 536.9,-15.7 		"/>
	</g>
	<g id="node24">
		<polygon class="st1" points="316.7,-102.2 287.7,-102.2 287.7,-84.2 316.7,-84.2 		"/>
		<text transform="matrix(1 0 0 1 296.2334 -91.0043)" class="st2 st3">-24</text>
	</g>
	<g id="edge91">
		<path class="st9" d="M308.2-83.9c4.5,5.7,11,13.2,18,18.3c31.9,23.1,45.9,18.1,81,36c1,0.5,2,1,3,1.6"/>
		<polygon class="st10" points="411.9,-31.1 418.9,-23.2 408.5,-25 		"/>
	</g>
	<g id="edge92">
		<path class="st65" d="M307.4-83.8c4.3,6.1,10.9,14,18.8,18.2c103.1,54.6,145.2,15.1,259.9,36c12.3,2.2,25.9,5.3,37.1,7.9"/>
		<polygon class="st66" points="624,-25.1 632.9,-19.4 622.4,-18.3 		"/>
	</g>
	<g id="edge93">
		<path class="st136" d="M307.2-83.9c4.2,6.2,10.9,14.3,19,18.2c122.4,58.8,476.4,11,609.8,36c6.4,1.2,13.2,3.1,19.5,5.1"/>
		<polygon class="st118" points="956.4,-27.9 964.8,-21.4 954.2,-21.3 		"/>
	</g>
	<g id="edge94">
		<path class="st158" d="M305.9-83.7c4.7,10.9,13,30.1,19.6,45.3"/>
		<polygon class="st159" points="328.5,-40.1 329.3,-29.5 322.1,-37.3 		"/>
	</g>
	<g id="edge95">
		<path class="st15" d="M309.1-84.1c4.7,5.4,11.1,12.5,17.1,18.4c12.1,11.9,26.5,24.5,37.8,34"/>
		<polygon class="st16" points="366.2,-34.4 371.6,-25.3 361.7,-29 		"/>
	</g>
	<g id="edge96">
		<path class="st160" d="M307.7-83.7c4.3,6,10.9,13.7,18.5,18.1C362.1-45,483.6-26.5,536.8-19.1"/>
		<polygon class="st161" points="537.2,-22.6 546.7,-17.8 536.3,-15.7 		"/>
	</g>
	<g id="edge116">
		<path class="st162" d="M1408.2-75.9c-6.3,4-13.3,7.8-20.3,10.2c-135,47.5-178.1,17-319.9,36c-21.6,2.9-46,6.7-63.8,9.6"/>
		<polygon class="st49" points="1004.8,-16.6 994.4,-18.4 1003.7,-23.5 		"/>
	</g>
	<g id="edge114">
		<path class="st19" d="M1131.2-74.6c-4.8,3.4-10,6.6-15.2,9c-66.7,30.4-90.2,16.7-161,36c-6.3,1.7-13,3.8-19.3,5.8"/>
		<polygon class="st20" points="937,-20.6 926.4,-20.8 934.8,-27.2 		"/>
	</g>
</g>
</svg>
